<?xml version="1.0" encoding="utf-8" standalone="no"?>
<!DOCTYPE svg PUBLIC "-//W3C//DTD SVG 1.1//EN"
  "http://www.w3.org/Graphics/SVG/1.1/DTD/svg11.dtd">
<svg xmlns:xlink="http://www.w3.org/1999/xlink" width="864pt" height="360pt" viewBox="0 0 864 360" xmlns="http://www.w3.org/2000/svg" version="1.1">
 <metadata>
  <rdf:RDF xmlns:dc="http://purl.org/dc/elements/1.1/" xmlns:cc="http://creativecommons.org/ns#" xmlns:rdf="http://www.w3.org/1999/02/22-rdf-syntax-ns#">
   <cc:Work>
    <dc:type rdf:resource="http://purl.org/dc/dcmitype/StillImage"/>
    <dc:date>2024-05-14T16:56:15.818333</dc:date>
    <dc:format>image/svg+xml</dc:format>
    <dc:creator>
     <cc:Agent>
      <dc:title>Matplotlib v3.8.4, https://matplotlib.org/</dc:title>
     </cc:Agent>
    </dc:creator>
   </cc:Work>
  </rdf:RDF>
 </metadata>
 <defs>
  <style type="text/css">*{stroke-linejoin: round; stroke-linecap: butt}</style>
 </defs>
 <g id="figure_1">
  <g id="patch_1">
   <path d="M 0 360 
L 864 360 
L 864 0 
L 0 0 
L 0 360 
z
" style="fill: none"/>
  </g>
  <g id="axes_1">
   <g id="patch_2">
    <path d="M 57.71 148.32 
L 851.04 148.32 
L 851.04 29.76 
L 57.71 29.76 
L 57.71 148.32 
z
" style="fill: none"/>
   </g>
   <g id="matplotlib.axis_1">
    <g id="xtick_1">
     <g id="line2d_1">
      <defs>
       <path id="m9d94aace07" d="M 0 0 
L 0 3.5 
" style="stroke: #000000; stroke-width: 0.8"/>
      </defs>
      <g>
       <use xlink:href="#m9d94aace07" x="93.770455" y="148.32" style="stroke: #000000; stroke-width: 0.8"/>
      </g>
     </g>
     <g id="text_1">
      <!-- 2018-01 -->
      <g transform="translate(68.700767 164.438125) scale(0.12 -0.12)">
       <defs>
        <path id="DejaVuSans-32" d="M 1228 531 
L 3431 531 
L 3431 0 
L 469 0 
L 469 531 
Q 828 903 1448 1529 
Q 2069 2156 2228 2338 
Q 2531 2678 2651 2914 
Q 2772 3150 2772 3378 
Q 2772 3750 2511 3984 
Q 2250 4219 1831 4219 
Q 1534 4219 1204 4116 
Q 875 4013 500 3803 
L 500 4441 
Q 881 4594 1212 4672 
Q 1544 4750 1819 4750 
Q 2544 4750 2975 4387 
Q 3406 4025 3406 3419 
Q 3406 3131 3298 2873 
Q 3191 2616 2906 2266 
Q 2828 2175 2409 1742 
Q 1991 1309 1228 531 
z
" transform="scale(0.015625)"/>
        <path id="DejaVuSans-30" d="M 2034 4250 
Q 1547 4250 1301 3770 
Q 1056 3291 1056 2328 
Q 1056 1369 1301 889 
Q 1547 409 2034 409 
Q 2525 409 2770 889 
Q 3016 1369 3016 2328 
Q 3016 3291 2770 3770 
Q 2525 4250 2034 4250 
z
M 2034 4750 
Q 2819 4750 3233 4129 
Q 3647 3509 3647 2328 
Q 3647 1150 3233 529 
Q 2819 -91 2034 -91 
Q 1250 -91 836 529 
Q 422 1150 422 2328 
Q 422 3509 836 4129 
Q 1250 4750 2034 4750 
z
" transform="scale(0.015625)"/>
        <path id="DejaVuSans-31" d="M 794 531 
L 1825 531 
L 1825 4091 
L 703 3866 
L 703 4441 
L 1819 4666 
L 2450 4666 
L 2450 531 
L 3481 531 
L 3481 0 
L 794 0 
L 794 531 
z
" transform="scale(0.015625)"/>
        <path id="DejaVuSans-38" d="M 2034 2216 
Q 1584 2216 1326 1975 
Q 1069 1734 1069 1313 
Q 1069 891 1326 650 
Q 1584 409 2034 409 
Q 2484 409 2743 651 
Q 3003 894 3003 1313 
Q 3003 1734 2745 1975 
Q 2488 2216 2034 2216 
z
M 1403 2484 
Q 997 2584 770 2862 
Q 544 3141 544 3541 
Q 544 4100 942 4425 
Q 1341 4750 2034 4750 
Q 2731 4750 3128 4425 
Q 3525 4100 3525 3541 
Q 3525 3141 3298 2862 
Q 3072 2584 2669 2484 
Q 3125 2378 3379 2068 
Q 3634 1759 3634 1313 
Q 3634 634 3220 271 
Q 2806 -91 2034 -91 
Q 1263 -91 848 271 
Q 434 634 434 1313 
Q 434 1759 690 2068 
Q 947 2378 1403 2484 
z
M 1172 3481 
Q 1172 3119 1398 2916 
Q 1625 2713 2034 2713 
Q 2441 2713 2670 2916 
Q 2900 3119 2900 3481 
Q 2900 3844 2670 4047 
Q 2441 4250 2034 4250 
Q 1625 4250 1398 4047 
Q 1172 3844 1172 3481 
z
" transform="scale(0.015625)"/>
        <path id="DejaVuSans-2d" d="M 313 2009 
L 1997 2009 
L 1997 1497 
L 313 1497 
L 313 2009 
z
" transform="scale(0.015625)"/>
       </defs>
       <use xlink:href="#DejaVuSans-32"/>
       <use xlink:href="#DejaVuSans-30" x="63.623047"/>
       <use xlink:href="#DejaVuSans-31" x="127.246094"/>
       <use xlink:href="#DejaVuSans-38" x="190.869141"/>
       <use xlink:href="#DejaVuSans-2d" x="254.492188"/>
       <use xlink:href="#DejaVuSans-30" x="290.576172"/>
       <use xlink:href="#DejaVuSans-31" x="354.199219"/>
      </g>
     </g>
    </g>
    <g id="xtick_2">
     <g id="line2d_2">
      <g>
       <use xlink:href="#m9d94aace07" x="210.66973" y="148.32" style="stroke: #000000; stroke-width: 0.8"/>
      </g>
     </g>
     <g id="text_2">
      <!-- 2018-03 -->
      <g transform="translate(185.600043 164.438125) scale(0.12 -0.12)">
       <defs>
        <path id="DejaVuSans-33" d="M 2597 2516 
Q 3050 2419 3304 2112 
Q 3559 1806 3559 1356 
Q 3559 666 3084 287 
Q 2609 -91 1734 -91 
Q 1441 -91 1130 -33 
Q 819 25 488 141 
L 488 750 
Q 750 597 1062 519 
Q 1375 441 1716 441 
Q 2309 441 2620 675 
Q 2931 909 2931 1356 
Q 2931 1769 2642 2001 
Q 2353 2234 1838 2234 
L 1294 2234 
L 1294 2753 
L 1863 2753 
Q 2328 2753 2575 2939 
Q 2822 3125 2822 3475 
Q 2822 3834 2567 4026 
Q 2313 4219 1838 4219 
Q 1578 4219 1281 4162 
Q 984 4106 628 3988 
L 628 4550 
Q 988 4650 1302 4700 
Q 1616 4750 1894 4750 
Q 2613 4750 3031 4423 
Q 3450 4097 3450 3541 
Q 3450 3153 3228 2886 
Q 3006 2619 2597 2516 
z
" transform="scale(0.015625)"/>
       </defs>
       <use xlink:href="#DejaVuSans-32"/>
       <use xlink:href="#DejaVuSans-30" x="63.623047"/>
       <use xlink:href="#DejaVuSans-31" x="127.246094"/>
       <use xlink:href="#DejaVuSans-38" x="190.869141"/>
       <use xlink:href="#DejaVuSans-2d" x="254.492188"/>
       <use xlink:href="#DejaVuSans-30" x="290.576172"/>
       <use xlink:href="#DejaVuSans-33" x="354.199219"/>
      </g>
     </g>
    </g>
    <g id="xtick_3">
     <g id="line2d_3">
      <g>
       <use xlink:href="#m9d94aace07" x="331.531693" y="148.32" style="stroke: #000000; stroke-width: 0.8"/>
      </g>
     </g>
     <g id="text_3">
      <!-- 2018-05 -->
      <g transform="translate(306.462006 164.438125) scale(0.12 -0.12)">
       <defs>
        <path id="DejaVuSans-35" d="M 691 4666 
L 3169 4666 
L 3169 4134 
L 1269 4134 
L 1269 2991 
Q 1406 3038 1543 3061 
Q 1681 3084 1819 3084 
Q 2600 3084 3056 2656 
Q 3513 2228 3513 1497 
Q 3513 744 3044 326 
Q 2575 -91 1722 -91 
Q 1428 -91 1123 -41 
Q 819 9 494 109 
L 494 744 
Q 775 591 1075 516 
Q 1375 441 1709 441 
Q 2250 441 2565 725 
Q 2881 1009 2881 1497 
Q 2881 1984 2565 2268 
Q 2250 2553 1709 2553 
Q 1456 2553 1204 2497 
Q 953 2441 691 2322 
L 691 4666 
z
" transform="scale(0.015625)"/>
       </defs>
       <use xlink:href="#DejaVuSans-32"/>
       <use xlink:href="#DejaVuSans-30" x="63.623047"/>
       <use xlink:href="#DejaVuSans-31" x="127.246094"/>
       <use xlink:href="#DejaVuSans-38" x="190.869141"/>
       <use xlink:href="#DejaVuSans-2d" x="254.492188"/>
       <use xlink:href="#DejaVuSans-30" x="290.576172"/>
       <use xlink:href="#DejaVuSans-35" x="354.199219"/>
      </g>
     </g>
    </g>
    <g id="xtick_4">
     <g id="line2d_4">
      <g>
       <use xlink:href="#m9d94aace07" x="452.393656" y="148.32" style="stroke: #000000; stroke-width: 0.8"/>
      </g>
     </g>
     <g id="text_4">
      <!-- 2018-07 -->
      <g transform="translate(427.323969 164.438125) scale(0.12 -0.12)">
       <defs>
        <path id="DejaVuSans-37" d="M 525 4666 
L 3525 4666 
L 3525 4397 
L 1831 0 
L 1172 0 
L 2766 4134 
L 525 4134 
L 525 4666 
z
" transform="scale(0.015625)"/>
       </defs>
       <use xlink:href="#DejaVuSans-32"/>
       <use xlink:href="#DejaVuSans-30" x="63.623047"/>
       <use xlink:href="#DejaVuSans-31" x="127.246094"/>
       <use xlink:href="#DejaVuSans-38" x="190.869141"/>
       <use xlink:href="#DejaVuSans-2d" x="254.492188"/>
       <use xlink:href="#DejaVuSans-30" x="290.576172"/>
       <use xlink:href="#DejaVuSans-37" x="354.199219"/>
      </g>
     </g>
    </g>
    <g id="xtick_5">
     <g id="line2d_5">
      <g>
       <use xlink:href="#m9d94aace07" x="575.236963" y="148.32" style="stroke: #000000; stroke-width: 0.8"/>
      </g>
     </g>
     <g id="text_5">
      <!-- 2018-09 -->
      <g transform="translate(550.167276 164.438125) scale(0.12 -0.12)">
       <defs>
        <path id="DejaVuSans-39" d="M 703 97 
L 703 672 
Q 941 559 1184 500 
Q 1428 441 1663 441 
Q 2288 441 2617 861 
Q 2947 1281 2994 2138 
Q 2813 1869 2534 1725 
Q 2256 1581 1919 1581 
Q 1219 1581 811 2004 
Q 403 2428 403 3163 
Q 403 3881 828 4315 
Q 1253 4750 1959 4750 
Q 2769 4750 3195 4129 
Q 3622 3509 3622 2328 
Q 3622 1225 3098 567 
Q 2575 -91 1691 -91 
Q 1453 -91 1209 -44 
Q 966 3 703 97 
z
M 1959 2075 
Q 2384 2075 2632 2365 
Q 2881 2656 2881 3163 
Q 2881 3666 2632 3958 
Q 2384 4250 1959 4250 
Q 1534 4250 1286 3958 
Q 1038 3666 1038 3163 
Q 1038 2656 1286 2365 
Q 1534 2075 1959 2075 
z
" transform="scale(0.015625)"/>
       </defs>
       <use xlink:href="#DejaVuSans-32"/>
       <use xlink:href="#DejaVuSans-30" x="63.623047"/>
       <use xlink:href="#DejaVuSans-31" x="127.246094"/>
       <use xlink:href="#DejaVuSans-38" x="190.869141"/>
       <use xlink:href="#DejaVuSans-2d" x="254.492188"/>
       <use xlink:href="#DejaVuSans-30" x="290.576172"/>
       <use xlink:href="#DejaVuSans-39" x="354.199219"/>
      </g>
     </g>
    </g>
    <g id="xtick_6">
     <g id="line2d_6">
      <g>
       <use xlink:href="#m9d94aace07" x="696.098926" y="148.32" style="stroke: #000000; stroke-width: 0.8"/>
      </g>
     </g>
     <g id="text_6">
      <!-- 2018-11 -->
      <g transform="translate(671.029239 164.438125) scale(0.12 -0.12)">
       <use xlink:href="#DejaVuSans-32"/>
       <use xlink:href="#DejaVuSans-30" x="63.623047"/>
       <use xlink:href="#DejaVuSans-31" x="127.246094"/>
       <use xlink:href="#DejaVuSans-38" x="190.869141"/>
       <use xlink:href="#DejaVuSans-2d" x="254.492188"/>
       <use xlink:href="#DejaVuSans-31" x="290.576172"/>
       <use xlink:href="#DejaVuSans-31" x="354.199219"/>
      </g>
     </g>
    </g>
    <g id="xtick_7">
     <g id="line2d_7">
      <g>
       <use xlink:href="#m9d94aace07" x="816.960889" y="148.32" style="stroke: #000000; stroke-width: 0.8"/>
      </g>
     </g>
     <g id="text_7">
      <!-- 2019-01 -->
      <g transform="translate(791.891202 164.438125) scale(0.12 -0.12)">
       <use xlink:href="#DejaVuSans-32"/>
       <use xlink:href="#DejaVuSans-30" x="63.623047"/>
       <use xlink:href="#DejaVuSans-31" x="127.246094"/>
       <use xlink:href="#DejaVuSans-39" x="190.869141"/>
       <use xlink:href="#DejaVuSans-2d" x="254.492188"/>
       <use xlink:href="#DejaVuSans-30" x="290.576172"/>
       <use xlink:href="#DejaVuSans-31" x="354.199219"/>
      </g>
     </g>
    </g>
   </g>
   <g id="matplotlib.axis_2">
    <g id="ytick_1">
     <g id="line2d_8">
      <defs>
       <path id="m642d1d563f" d="M 0 0 
L -3.5 0 
" style="stroke: #000000; stroke-width: 0.8"/>
      </defs>
      <g>
       <use xlink:href="#m642d1d563f" x="57.71" y="115.280085" style="stroke: #000000; stroke-width: 0.8"/>
      </g>
     </g>
     <g id="text_8">
      <!-- 200 -->
      <g transform="translate(27.805 119.839148) scale(0.12 -0.12)">
       <use xlink:href="#DejaVuSans-32"/>
       <use xlink:href="#DejaVuSans-30" x="63.623047"/>
       <use xlink:href="#DejaVuSans-30" x="127.246094"/>
      </g>
     </g>
    </g>
    <g id="ytick_2">
     <g id="line2d_9">
      <g>
       <use xlink:href="#m642d1d563f" x="57.71" y="79.34429" style="stroke: #000000; stroke-width: 0.8"/>
      </g>
     </g>
     <g id="text_9">
      <!-- 300 -->
      <g transform="translate(27.805 83.903353) scale(0.12 -0.12)">
       <use xlink:href="#DejaVuSans-33"/>
       <use xlink:href="#DejaVuSans-30" x="63.623047"/>
       <use xlink:href="#DejaVuSans-30" x="127.246094"/>
      </g>
     </g>
    </g>
    <g id="ytick_3">
     <g id="line2d_10">
      <g>
       <use xlink:href="#m642d1d563f" x="57.71" y="43.408495" style="stroke: #000000; stroke-width: 0.8"/>
      </g>
     </g>
     <g id="text_10">
      <!-- 400 -->
      <g transform="translate(27.805 47.967558) scale(0.12 -0.12)">
       <defs>
        <path id="DejaVuSans-34" d="M 2419 4116 
L 825 1625 
L 2419 1625 
L 2419 4116 
z
M 2253 4666 
L 3047 4666 
L 3047 1625 
L 3713 1625 
L 3713 1100 
L 3047 1100 
L 3047 0 
L 2419 0 
L 2419 1100 
L 313 1100 
L 313 1709 
L 2253 4666 
z
" transform="scale(0.015625)"/>
       </defs>
       <use xlink:href="#DejaVuSans-34"/>
       <use xlink:href="#DejaVuSans-30" x="63.623047"/>
       <use xlink:href="#DejaVuSans-30" x="127.246094"/>
      </g>
     </g>
    </g>
    <g id="text_11">
     <!-- Soil moisture (mm) -->
     <g transform="translate(21.309375 146.524688) rotate(-90) scale(0.12 -0.12)">
      <defs>
       <path id="DejaVuSans-53" d="M 3425 4513 
L 3425 3897 
Q 3066 4069 2747 4153 
Q 2428 4238 2131 4238 
Q 1616 4238 1336 4038 
Q 1056 3838 1056 3469 
Q 1056 3159 1242 3001 
Q 1428 2844 1947 2747 
L 2328 2669 
Q 3034 2534 3370 2195 
Q 3706 1856 3706 1288 
Q 3706 609 3251 259 
Q 2797 -91 1919 -91 
Q 1588 -91 1214 -16 
Q 841 59 441 206 
L 441 856 
Q 825 641 1194 531 
Q 1563 422 1919 422 
Q 2459 422 2753 634 
Q 3047 847 3047 1241 
Q 3047 1584 2836 1778 
Q 2625 1972 2144 2069 
L 1759 2144 
Q 1053 2284 737 2584 
Q 422 2884 422 3419 
Q 422 4038 858 4394 
Q 1294 4750 2059 4750 
Q 2388 4750 2728 4690 
Q 3069 4631 3425 4513 
z
" transform="scale(0.015625)"/>
       <path id="DejaVuSans-6f" d="M 1959 3097 
Q 1497 3097 1228 2736 
Q 959 2375 959 1747 
Q 959 1119 1226 758 
Q 1494 397 1959 397 
Q 2419 397 2687 759 
Q 2956 1122 2956 1747 
Q 2956 2369 2687 2733 
Q 2419 3097 1959 3097 
z
M 1959 3584 
Q 2709 3584 3137 3096 
Q 3566 2609 3566 1747 
Q 3566 888 3137 398 
Q 2709 -91 1959 -91 
Q 1206 -91 779 398 
Q 353 888 353 1747 
Q 353 2609 779 3096 
Q 1206 3584 1959 3584 
z
" transform="scale(0.015625)"/>
       <path id="DejaVuSans-69" d="M 603 3500 
L 1178 3500 
L 1178 0 
L 603 0 
L 603 3500 
z
M 603 4863 
L 1178 4863 
L 1178 4134 
L 603 4134 
L 603 4863 
z
" transform="scale(0.015625)"/>
       <path id="DejaVuSans-6c" d="M 603 4863 
L 1178 4863 
L 1178 0 
L 603 0 
L 603 4863 
z
" transform="scale(0.015625)"/>
       <path id="DejaVuSans-20" transform="scale(0.015625)"/>
       <path id="DejaVuSans-6d" d="M 3328 2828 
Q 3544 3216 3844 3400 
Q 4144 3584 4550 3584 
Q 5097 3584 5394 3201 
Q 5691 2819 5691 2113 
L 5691 0 
L 5113 0 
L 5113 2094 
Q 5113 2597 4934 2840 
Q 4756 3084 4391 3084 
Q 3944 3084 3684 2787 
Q 3425 2491 3425 1978 
L 3425 0 
L 2847 0 
L 2847 2094 
Q 2847 2600 2669 2842 
Q 2491 3084 2119 3084 
Q 1678 3084 1418 2786 
Q 1159 2488 1159 1978 
L 1159 0 
L 581 0 
L 581 3500 
L 1159 3500 
L 1159 2956 
Q 1356 3278 1631 3431 
Q 1906 3584 2284 3584 
Q 2666 3584 2933 3390 
Q 3200 3197 3328 2828 
z
" transform="scale(0.015625)"/>
       <path id="DejaVuSans-73" d="M 2834 3397 
L 2834 2853 
Q 2591 2978 2328 3040 
Q 2066 3103 1784 3103 
Q 1356 3103 1142 2972 
Q 928 2841 928 2578 
Q 928 2378 1081 2264 
Q 1234 2150 1697 2047 
L 1894 2003 
Q 2506 1872 2764 1633 
Q 3022 1394 3022 966 
Q 3022 478 2636 193 
Q 2250 -91 1575 -91 
Q 1294 -91 989 -36 
Q 684 19 347 128 
L 347 722 
Q 666 556 975 473 
Q 1284 391 1588 391 
Q 1994 391 2212 530 
Q 2431 669 2431 922 
Q 2431 1156 2273 1281 
Q 2116 1406 1581 1522 
L 1381 1569 
Q 847 1681 609 1914 
Q 372 2147 372 2553 
Q 372 3047 722 3315 
Q 1072 3584 1716 3584 
Q 2034 3584 2315 3537 
Q 2597 3491 2834 3397 
z
" transform="scale(0.015625)"/>
       <path id="DejaVuSans-74" d="M 1172 4494 
L 1172 3500 
L 2356 3500 
L 2356 3053 
L 1172 3053 
L 1172 1153 
Q 1172 725 1289 603 
Q 1406 481 1766 481 
L 2356 481 
L 2356 0 
L 1766 0 
Q 1100 0 847 248 
Q 594 497 594 1153 
L 594 3053 
L 172 3053 
L 172 3500 
L 594 3500 
L 594 4494 
L 1172 4494 
z
" transform="scale(0.015625)"/>
       <path id="DejaVuSans-75" d="M 544 1381 
L 544 3500 
L 1119 3500 
L 1119 1403 
Q 1119 906 1312 657 
Q 1506 409 1894 409 
Q 2359 409 2629 706 
Q 2900 1003 2900 1516 
L 2900 3500 
L 3475 3500 
L 3475 0 
L 2900 0 
L 2900 538 
Q 2691 219 2414 64 
Q 2138 -91 1772 -91 
Q 1169 -91 856 284 
Q 544 659 544 1381 
z
M 1991 3584 
L 1991 3584 
z
" transform="scale(0.015625)"/>
       <path id="DejaVuSans-72" d="M 2631 2963 
Q 2534 3019 2420 3045 
Q 2306 3072 2169 3072 
Q 1681 3072 1420 2755 
Q 1159 2438 1159 1844 
L 1159 0 
L 581 0 
L 581 3500 
L 1159 3500 
L 1159 2956 
Q 1341 3275 1631 3429 
Q 1922 3584 2338 3584 
Q 2397 3584 2469 3576 
Q 2541 3569 2628 3553 
L 2631 2963 
z
" transform="scale(0.015625)"/>
       <path id="DejaVuSans-65" d="M 3597 1894 
L 3597 1613 
L 953 1613 
Q 991 1019 1311 708 
Q 1631 397 2203 397 
Q 2534 397 2845 478 
Q 3156 559 3463 722 
L 3463 178 
Q 3153 47 2828 -22 
Q 2503 -91 2169 -91 
Q 1331 -91 842 396 
Q 353 884 353 1716 
Q 353 2575 817 3079 
Q 1281 3584 2069 3584 
Q 2775 3584 3186 3129 
Q 3597 2675 3597 1894 
z
M 3022 2063 
Q 3016 2534 2758 2815 
Q 2500 3097 2075 3097 
Q 1594 3097 1305 2825 
Q 1016 2553 972 2059 
L 3022 2063 
z
" transform="scale(0.015625)"/>
       <path id="DejaVuSans-28" d="M 1984 4856 
Q 1566 4138 1362 3434 
Q 1159 2731 1159 2009 
Q 1159 1288 1364 580 
Q 1569 -128 1984 -844 
L 1484 -844 
Q 1016 -109 783 600 
Q 550 1309 550 2009 
Q 550 2706 781 3412 
Q 1013 4119 1484 4856 
L 1984 4856 
z
" transform="scale(0.015625)"/>
       <path id="DejaVuSans-29" d="M 513 4856 
L 1013 4856 
Q 1481 4119 1714 3412 
Q 1947 2706 1947 2009 
Q 1947 1309 1714 600 
Q 1481 -109 1013 -844 
L 513 -844 
Q 928 -128 1133 580 
Q 1338 1288 1338 2009 
Q 1338 2731 1133 3434 
Q 928 4138 513 4856 
z
" transform="scale(0.015625)"/>
      </defs>
      <use xlink:href="#DejaVuSans-53"/>
      <use xlink:href="#DejaVuSans-6f" x="63.476562"/>
      <use xlink:href="#DejaVuSans-69" x="124.658203"/>
      <use xlink:href="#DejaVuSans-6c" x="152.441406"/>
      <use xlink:href="#DejaVuSans-20" x="180.224609"/>
      <use xlink:href="#DejaVuSans-6d" x="212.011719"/>
      <use xlink:href="#DejaVuSans-6f" x="309.423828"/>
      <use xlink:href="#DejaVuSans-69" x="370.605469"/>
      <use xlink:href="#DejaVuSans-73" x="398.388672"/>
      <use xlink:href="#DejaVuSans-74" x="450.488281"/>
      <use xlink:href="#DejaVuSans-75" x="489.697266"/>
      <use xlink:href="#DejaVuSans-72" x="553.076172"/>
      <use xlink:href="#DejaVuSans-65" x="591.939453"/>
      <use xlink:href="#DejaVuSans-20" x="653.462891"/>
      <use xlink:href="#DejaVuSans-28" x="685.25"/>
      <use xlink:href="#DejaVuSans-6d" x="724.263672"/>
      <use xlink:href="#DejaVuSans-6d" x="821.675781"/>
      <use xlink:href="#DejaVuSans-29" x="919.087891"/>
     </g>
    </g>
   </g>
   <g id="line2d_11">
    <path d="M 93.770455 35.208096 
L 95.751798 35.269459 
L 97.733142 35.619094 
L 99.714486 35.69748 
L 111.602547 35.236004 
L 117.546578 35.287596 
L 119.527922 35.197746 
L 129.43464 35.352531 
L 133.397328 35.303276 
L 149.248077 35.649613 
L 151.229421 35.589099 
L 153.210764 35.657671 
L 157.173452 35.60168 
L 161.136139 35.636037 
L 171.042857 35.534287 
L 175.005544 35.566127 
L 208.688387 35.842944 
L 214.632418 35.949292 
L 218.595105 36.304755 
L 226.52048 36.830157 
L 228.501823 36.844432 
L 230.483167 37.164432 
L 232.46451 36.979965 
L 236.427198 37.112887 
L 250.296603 37.860899 
L 252.277947 37.811245 
L 256.240634 38.144687 
L 262.184665 39.000674 
L 264.166009 38.463209 
L 266.147353 38.640988 
L 268.128696 38.945464 
L 270.11004 38.670565 
L 272.091384 38.764216 
L 274.072727 38.985334 
L 276.054071 39.34687 
L 278.035415 39.398239 
L 280.016758 39.59463 
L 283.979446 40.579624 
L 289.923477 42.575548 
L 291.90482 42.792681 
L 293.886164 43.185927 
L 295.867507 42.521758 
L 297.848851 42.221991 
L 301.811538 42.810007 
L 303.792882 43.480411 
L 313.6996 47.674369 
L 315.680944 48.147573 
L 317.662288 47.893852 
L 319.643631 47.920984 
L 321.624975 47.567665 
L 323.606319 48.048574 
L 329.55035 50.094601 
L 331.531693 50.261855 
L 341.438412 54.763718 
L 347.382443 57.852373 
L 349.363786 57.757601 
L 351.34513 58.187913 
L 353.326474 58.495076 
L 357.289161 60.564957 
L 359.270504 60.819141 
L 361.251848 61.357212 
L 363.233192 62.514411 
L 365.214535 62.771834 
L 367.195879 62.73448 
L 381.065285 71.084582 
L 383.046628 72.005595 
L 385.027972 72.169971 
L 387.009316 73.681567 
L 388.990659 73.956067 
L 390.972003 75.269699 
L 392.953347 74.489661 
L 394.93469 74.616853 
L 396.916034 75.302518 
L 398.897378 76.251097 
L 402.860065 78.797281 
L 404.841409 80.18466 
L 408.804096 82.526462 
L 410.78544 82.310449 
L 412.766783 83.418074 
L 414.748127 84.065058 
L 416.729471 84.1927 
L 418.710814 84.606249 
L 424.654845 86.268735 
L 428.617532 86.604785 
L 430.598876 87.105496 
L 432.58022 86.234769 
L 434.561563 86.151533 
L 436.542907 86.195821 
L 438.524251 85.393721 
L 440.505594 86.007476 
L 444.468282 88.204084 
L 446.449625 89.320986 
L 450.412313 91.725647 
L 456.356344 95.242558 
L 460.319031 97.769019 
L 462.300375 98.307811 
L 464.281718 99.447152 
L 466.263062 100.301375 
L 468.244406 100.769142 
L 470.225749 99.713029 
L 472.207093 97.677838 
L 474.188437 97.988617 
L 476.16978 98.987338 
L 480.132468 100.661805 
L 486.076499 103.873773 
L 492.020529 106.878843 
L 494.001873 107.487385 
L 495.983217 108.450852 
L 499.945904 110.864677 
L 503.908591 113.026204 
L 505.889935 112.40258 
L 509.852622 114.436208 
L 511.833966 115.24819 
L 513.81531 116.253851 
L 515.796653 116.036209 
L 517.777997 117.110442 
L 519.759341 117.990293 
L 521.740684 118.74783 
L 525.703372 120.619624 
L 527.684715 121.029565 
L 529.666059 120.688318 
L 531.647403 121.345058 
L 533.628746 121.482946 
L 535.61009 122.277136 
L 537.591434 121.298848 
L 539.572777 121.070018 
L 541.554121 121.399297 
L 543.535465 122.314956 
L 545.516808 122.667541 
L 549.479496 124.192861 
L 551.460839 124.30392 
L 555.423526 125.636573 
L 557.40487 126.337334 
L 559.386214 126.297994 
L 561.367557 125.218433 
L 563.348901 125.533971 
L 565.330245 125.219696 
L 567.311588 125.54814 
L 569.292932 126.12731 
L 571.274276 123.913824 
L 573.255619 124.248337 
L 575.236963 124.386756 
L 577.218307 124.801081 
L 579.19965 125.048967 
L 581.180994 125.433691 
L 583.162338 125.695258 
L 585.143681 125.180654 
L 587.125025 124.517909 
L 589.106369 124.82303 
L 591.087712 125.326278 
L 593.069056 125.568633 
L 595.0504 125.670665 
L 597.031743 125.244852 
L 599.013087 124.427318 
L 604.957118 125.169574 
L 612.882493 126.630831 
L 614.863836 125.313631 
L 616.84518 124.352669 
L 618.826523 119.374172 
L 620.807867 119.355123 
L 624.770554 119.777253 
L 626.751898 120.098874 
L 632.695929 120.605852 
L 634.677273 119.988871 
L 636.658616 118.765622 
L 638.63996 118.55951 
L 640.621304 118.589403 
L 646.565335 119.088456 
L 666.378771 120.442381 
L 668.360115 120.278484 
L 674.304146 120.437181 
L 676.28549 119.967913 
L 678.266833 119.073317 
L 682.22952 118.567115 
L 684.210864 118.207037 
L 688.173551 118.173195 
L 690.154895 118.004413 
L 692.136239 117.309321 
L 694.117582 117.318707 
L 698.08027 117.038343 
L 709.968332 116.878229 
L 711.949675 115.98386 
L 713.931019 115.608187 
L 715.912363 113.112561 
L 717.893706 112.046707 
L 719.87505 111.453858 
L 725.819081 111.168401 
L 729.781768 110.964408 
L 731.763112 110.569929 
L 733.744456 110.362108 
L 739.688487 110.157394 
L 741.66983 109.327251 
L 743.651174 109.038085 
L 749.595205 108.828541 
L 751.576548 106.847881 
L 753.557892 106.402086 
L 755.539236 106.193416 
L 757.520579 104.363952 
L 759.501923 103.27334 
L 761.483267 102.676891 
L 763.46461 102.3976 
L 765.445954 101.79531 
L 767.427298 99.412536 
L 769.408641 97.476156 
L 773.371329 95.119859 
L 777.334016 94.417438 
L 779.31536 94.124336 
L 785.259391 93.935093 
L 787.240734 92.345427 
L 789.222078 92.254713 
L 791.203422 92.009028 
L 793.184765 91.457182 
L 795.166109 86.773513 
L 797.147453 84.575779 
L 799.128796 82.711165 
L 801.11014 82.286609 
L 809.035514 81.784537 
L 811.016858 80.237749 
L 812.998202 79.972816 
L 814.979545 79.901027 
L 814.979545 79.901027 
" clip-path="url(#pc72e550000)" style="fill: none; stroke: #0076ba; stroke-width: 1.5; stroke-linecap: square"/>
   </g>
   <g id="line2d_12">
    <path d="M 93.770455 35.149091 
L 95.751798 35.231028 
L 97.733142 35.866621 
L 99.714486 35.925351 
L 111.602547 35.419769 
L 117.546578 35.426102 
L 121.509266 35.301242 
L 123.490609 35.340881 
L 125.471953 35.268248 
L 127.453297 35.520542 
L 135.378671 35.415136 
L 155.192108 35.602815 
L 186.893606 35.453536 
L 200.763012 35.661069 
L 210.66973 35.724335 
L 214.632418 35.805317 
L 224.539136 36.524889 
L 226.52048 36.698706 
L 228.501823 36.737507 
L 230.483167 37.061699 
L 232.46451 36.784755 
L 244.352572 37.323074 
L 256.240634 38.135814 
L 262.184665 39.035725 
L 264.166009 38.087346 
L 268.128696 38.654412 
L 270.11004 38.318509 
L 274.072727 38.73605 
L 276.054071 39.184889 
L 278.035415 39.128042 
L 280.016758 39.408438 
L 283.979446 40.393709 
L 291.90482 42.852194 
L 293.886164 43.368524 
L 295.867507 42.173444 
L 297.848851 41.888073 
L 299.830195 42.245369 
L 301.811538 42.797854 
L 303.792882 43.469401 
L 315.680944 48.380596 
L 317.662288 48.47148 
L 319.643631 48.7048 
L 321.624975 48.315078 
L 323.606319 48.825131 
L 325.587662 49.566885 
L 327.569006 50.438467 
L 329.55035 51.155348 
L 331.531693 51.426901 
L 341.438412 55.920992 
L 347.382443 59.01026 
L 349.363786 59.089638 
L 351.34513 59.56841 
L 353.326474 59.885776 
L 357.289161 62.032312 
L 361.251848 63.573332 
L 363.233192 64.754391 
L 367.195879 65.522939 
L 383.046628 75.156261 
L 385.027972 75.715224 
L 387.009316 77.254745 
L 388.990659 78.123867 
L 390.972003 79.531449 
L 392.953347 78.366504 
L 394.93469 78.890928 
L 396.916034 79.716445 
L 398.897378 80.717215 
L 402.860065 83.250134 
L 404.841409 84.628485 
L 406.822752 85.740762 
L 408.804096 87.004627 
L 410.78544 87.491648 
L 412.766783 88.589947 
L 414.748127 89.256818 
L 416.729471 89.617856 
L 418.710814 90.454282 
L 424.654845 92.631191 
L 428.617532 93.270965 
L 430.598876 93.980402 
L 432.58022 93.317931 
L 434.561563 94.034282 
L 436.542907 94.368392 
L 438.524251 94.262358 
L 440.505594 94.902994 
L 442.486938 96.059729 
L 446.449625 98.183667 
L 450.412313 100.542858 
L 456.356344 103.991535 
L 460.319031 106.467707 
L 462.300375 107.103464 
L 464.281718 108.221901 
L 466.263062 109.060041 
L 468.244406 109.630543 
L 470.225749 108.751616 
L 472.207093 105.769864 
L 474.188437 106.574545 
L 476.16978 107.655935 
L 480.132468 109.303992 
L 486.076499 112.467493 
L 492.020529 115.407404 
L 495.983217 117.281407 
L 499.945904 119.699989 
L 503.908591 121.842348 
L 505.889935 121.325606 
L 509.852622 123.308014 
L 511.833966 124.120697 
L 513.81531 125.152483 
L 515.796653 125.439872 
L 519.759341 127.407316 
L 521.740684 128.145365 
L 527.684715 130.830188 
L 529.666059 130.959236 
L 531.647403 131.595824 
L 533.628746 132.108374 
L 535.61009 132.875019 
L 537.591434 132.198376 
L 539.572777 132.772097 
L 541.554121 133.217243 
L 543.535465 134.097329 
L 545.516808 134.681335 
L 549.479496 136.15578 
L 551.460839 136.476736 
L 555.423526 137.753543 
L 557.40487 138.485144 
L 559.386214 138.776906 
L 561.367557 137.99641 
L 563.348901 138.402532 
L 565.330245 138.574867 
L 567.311588 138.923457 
L 569.292932 139.576491 
L 571.274276 136.542661 
L 577.218307 137.583703 
L 579.19965 138.150191 
L 583.162338 138.838001 
L 585.143681 139.057656 
L 587.125025 139.076819 
L 589.106369 139.371493 
L 591.087712 139.849133 
L 593.069056 140.107292 
L 595.0504 140.529155 
L 597.031743 140.700867 
L 599.013087 140.66004 
L 602.975774 141.205874 
L 612.882493 142.930909 
L 614.863836 142.024901 
L 616.84518 141.605724 
L 618.826523 133.399836 
L 624.770554 134.020923 
L 628.733242 134.527866 
L 634.677273 134.944281 
L 636.658616 134.316893 
L 660.43474 135.967983 
L 670.341459 136.381366 
L 674.304146 136.481422 
L 690.154895 136.48705 
L 694.117582 136.601547 
L 713.931019 136.36503 
L 715.912363 133.114915 
L 717.893706 132.759575 
L 725.819081 132.431991 
L 727.800425 132.302193 
L 747.613861 132.088942 
L 751.576548 132.016558 
L 755.539236 131.916838 
L 757.520579 129.994183 
L 759.501923 129.568818 
L 763.46461 129.334396 
L 765.445954 129.348862 
L 767.427298 126.286015 
L 769.408641 124.21094 
L 771.389985 123.499625 
L 773.371329 123.070697 
L 779.31536 122.931544 
L 793.184765 122.656256 
L 795.166109 114.811043 
L 797.147453 112.023299 
L 799.128796 109.881858 
L 809.035514 109.798591 
L 811.016858 108.247547 
L 814.979545 108.199723 
L 814.979545 108.199723 
" clip-path="url(#pc72e550000)" style="fill: none; stroke-dasharray: 1.5,2.475; stroke-dashoffset: 0; stroke: #004d80; stroke-width: 1.5"/>
   </g>
   <g id="line2d_13">
    <path d="M 93.770455 35.40141 
L 95.751798 35.413971 
L 99.714486 35.632161 
L 109.621204 35.286922 
L 113.583891 35.314047 
L 117.546578 35.345459 
L 119.527922 35.255617 
L 129.43464 35.294939 
L 135.378671 35.308507 
L 137.360015 35.515492 
L 161.136139 35.656634 
L 171.042857 35.554886 
L 176.986888 35.623588 
L 182.930919 35.613494 
L 194.818981 35.87506 
L 214.632418 36.091892 
L 230.483167 37.194937 
L 232.46451 37.095685 
L 240.389885 37.33292 
L 250.296603 37.900111 
L 252.277947 37.721828 
L 256.240634 38.005922 
L 262.184665 38.770972 
L 264.166009 38.531151 
L 268.128696 38.983503 
L 270.11004 38.827014 
L 272.091384 38.9029 
L 274.072727 39.093073 
L 276.054071 39.478667 
L 280.016758 39.890325 
L 283.979446 40.737265 
L 289.923477 42.472268 
L 291.90482 42.704275 
L 293.886164 43.050871 
L 297.848851 42.640906 
L 299.830195 42.831397 
L 301.811538 43.199616 
L 303.792882 43.75419 
L 313.6996 47.246032 
L 315.680944 47.667317 
L 317.662288 47.495613 
L 319.643631 47.663674 
L 321.624975 47.557228 
L 323.606319 47.882065 
L 329.55035 49.532988 
L 331.531693 49.562151 
L 341.438412 53.043217 
L 347.382443 55.448799 
L 351.34513 55.87725 
L 353.326474 55.943862 
L 357.289161 57.564097 
L 361.251848 58.244385 
L 363.233192 59.158562 
L 365.214535 59.216736 
L 367.195879 59.137733 
L 381.065285 65.560224 
L 383.046628 66.400778 
L 385.027972 66.865742 
L 387.009316 68.103132 
L 388.990659 68.578197 
L 390.972003 69.645368 
L 392.953347 69.553596 
L 394.93469 69.576554 
L 396.916034 70.02785 
L 398.897378 70.697674 
L 402.860065 72.627443 
L 404.841409 73.704116 
L 406.822752 74.508285 
L 408.804096 75.440569 
L 410.78544 75.385154 
L 412.766783 76.173332 
L 414.748127 76.506817 
L 416.729471 76.425441 
L 424.654845 77.70101 
L 428.617532 77.530443 
L 430.598876 77.817869 
L 432.58022 77.366087 
L 434.561563 77.404196 
L 436.542907 77.268443 
L 438.524251 76.633519 
L 440.505594 76.940724 
L 442.486938 77.788333 
L 446.449625 79.309951 
L 450.412313 81.075266 
L 456.356344 83.628468 
L 460.319031 85.515785 
L 462.300375 85.77563 
L 464.281718 86.594149 
L 466.263062 87.119333 
L 468.244406 87.308496 
L 470.225749 86.693679 
L 472.207093 85.669028 
L 474.188437 85.909636 
L 476.16978 86.637653 
L 480.132468 87.653851 
L 486.076499 89.903935 
L 492.020529 91.934126 
L 494.001873 92.393112 
L 495.983217 93.031534 
L 499.945904 94.849595 
L 503.908591 96.393323 
L 505.889935 96.259924 
L 509.852622 97.652427 
L 511.833966 98.148637 
L 513.81531 98.865039 
L 515.796653 98.938128 
L 517.777997 99.696701 
L 519.759341 100.291932 
L 521.740684 100.722589 
L 525.703372 101.957833 
L 527.684715 102.293196 
L 529.666059 102.258799 
L 531.647403 102.585076 
L 533.628746 102.583652 
L 535.61009 103.054654 
L 537.591434 102.451806 
L 539.572777 102.304696 
L 541.554121 102.360756 
L 543.535465 102.959868 
L 545.516808 103.109245 
L 549.479496 103.995795 
L 551.460839 103.873868 
L 555.423526 104.555277 
L 557.40487 104.96949 
L 559.386214 104.757368 
L 561.367557 104.051936 
L 563.348901 104.083684 
L 565.330245 103.664985 
L 567.311588 103.670103 
L 569.292932 103.981241 
L 571.274276 102.705068 
L 579.19965 102.761562 
L 583.162338 102.76276 
L 585.143681 102.410563 
L 587.125025 101.932133 
L 589.106369 101.895626 
L 591.087712 102.06752 
L 595.0504 101.91966 
L 597.031743 101.448492 
L 599.013087 100.75876 
L 604.957118 100.576813 
L 612.882493 100.690651 
L 614.863836 99.681715 
L 616.84518 98.972637 
L 618.826523 96.142191 
L 622.789211 95.705599 
L 628.733242 95.466734 
L 632.695929 95.073772 
L 634.677273 94.480943 
L 636.658616 93.475685 
L 640.621304 92.794992 
L 646.565335 92.284129 
L 666.378771 90.156487 
L 668.360115 89.701713 
L 674.304146 88.814907 
L 676.28549 88.229083 
L 678.266833 87.420818 
L 682.22952 86.524314 
L 684.210864 85.990635 
L 690.154895 84.812115 
L 692.136239 84.186772 
L 694.117582 83.855204 
L 700.061613 82.562253 
L 706.005644 81.489653 
L 709.968332 80.743756 
L 711.949675 79.963789 
L 713.931019 79.424283 
L 715.912363 77.90747 
L 717.893706 77.048482 
L 719.87505 76.396517 
L 725.819081 75.080128 
L 731.763112 73.701931 
L 737.707143 72.501786 
L 739.688487 72.131776 
L 741.66983 71.433183 
L 745.632517 70.623952 
L 749.595205 70.45906 
L 751.576548 68.533685 
L 755.539236 67.555762 
L 757.520579 66.455329 
L 759.501923 65.671483 
L 761.483267 65.028115 
L 765.445954 64.00318 
L 767.427298 62.733734 
L 769.408641 61.607273 
L 773.371329 60.024941 
L 777.334016 59.134188 
L 781.296703 58.386842 
L 785.259391 58.290856 
L 787.240734 57.050849 
L 791.203422 56.337215 
L 793.184765 55.860575 
L 795.166109 53.982173 
L 797.147453 53.005047 
L 799.128796 52.17371 
L 803.091484 51.506413 
L 809.035514 50.765395 
L 811.016858 50.119542 
L 814.979545 49.591235 
L 814.979545 49.591235 
" clip-path="url(#pc72e550000)" style="fill: none; stroke-dasharray: 5.55,2.4; stroke-dashoffset: 0; stroke: #56c1ff; stroke-width: 1.5"/>
   </g>
   <g id="patch_3">
    <path d="M 57.71 148.32 
L 57.71 29.76 
" style="fill: none; stroke: #000000; stroke-width: 0.8; stroke-linejoin: miter; stroke-linecap: square"/>
   </g>
   <g id="patch_4">
    <path d="M 851.04 148.32 
L 851.04 29.76 
" style="fill: none; stroke: #000000; stroke-width: 0.8; stroke-linejoin: miter; stroke-linecap: square"/>
   </g>
   <g id="patch_5">
    <path d="M 57.71 148.32 
L 851.04 148.32 
" style="fill: none; stroke: #000000; stroke-width: 0.8; stroke-linejoin: miter; stroke-linecap: square"/>
   </g>
   <g id="patch_6">
    <path d="M 57.71 29.76 
L 851.04 29.76 
" style="fill: none; stroke: #000000; stroke-width: 0.8; stroke-linejoin: miter; stroke-linecap: square"/>
   </g>
   <g id="text_12">
    <!-- Drought year 2018 -->
    <g transform="translate(386.14375 23.76) scale(0.144 -0.144)">
     <defs>
      <path id="DejaVuSans-44" d="M 1259 4147 
L 1259 519 
L 2022 519 
Q 2988 519 3436 956 
Q 3884 1394 3884 2338 
Q 3884 3275 3436 3711 
Q 2988 4147 2022 4147 
L 1259 4147 
z
M 628 4666 
L 1925 4666 
Q 3281 4666 3915 4102 
Q 4550 3538 4550 2338 
Q 4550 1131 3912 565 
Q 3275 0 1925 0 
L 628 0 
L 628 4666 
z
" transform="scale(0.015625)"/>
      <path id="DejaVuSans-67" d="M 2906 1791 
Q 2906 2416 2648 2759 
Q 2391 3103 1925 3103 
Q 1463 3103 1205 2759 
Q 947 2416 947 1791 
Q 947 1169 1205 825 
Q 1463 481 1925 481 
Q 2391 481 2648 825 
Q 2906 1169 2906 1791 
z
M 3481 434 
Q 3481 -459 3084 -895 
Q 2688 -1331 1869 -1331 
Q 1566 -1331 1297 -1286 
Q 1028 -1241 775 -1147 
L 775 -588 
Q 1028 -725 1275 -790 
Q 1522 -856 1778 -856 
Q 2344 -856 2625 -561 
Q 2906 -266 2906 331 
L 2906 616 
Q 2728 306 2450 153 
Q 2172 0 1784 0 
Q 1141 0 747 490 
Q 353 981 353 1791 
Q 353 2603 747 3093 
Q 1141 3584 1784 3584 
Q 2172 3584 2450 3431 
Q 2728 3278 2906 2969 
L 2906 3500 
L 3481 3500 
L 3481 434 
z
" transform="scale(0.015625)"/>
      <path id="DejaVuSans-68" d="M 3513 2113 
L 3513 0 
L 2938 0 
L 2938 2094 
Q 2938 2591 2744 2837 
Q 2550 3084 2163 3084 
Q 1697 3084 1428 2787 
Q 1159 2491 1159 1978 
L 1159 0 
L 581 0 
L 581 4863 
L 1159 4863 
L 1159 2956 
Q 1366 3272 1645 3428 
Q 1925 3584 2291 3584 
Q 2894 3584 3203 3211 
Q 3513 2838 3513 2113 
z
" transform="scale(0.015625)"/>
      <path id="DejaVuSans-79" d="M 2059 -325 
Q 1816 -950 1584 -1140 
Q 1353 -1331 966 -1331 
L 506 -1331 
L 506 -850 
L 844 -850 
Q 1081 -850 1212 -737 
Q 1344 -625 1503 -206 
L 1606 56 
L 191 3500 
L 800 3500 
L 1894 763 
L 2988 3500 
L 3597 3500 
L 2059 -325 
z
" transform="scale(0.015625)"/>
      <path id="DejaVuSans-61" d="M 2194 1759 
Q 1497 1759 1228 1600 
Q 959 1441 959 1056 
Q 959 750 1161 570 
Q 1363 391 1709 391 
Q 2188 391 2477 730 
Q 2766 1069 2766 1631 
L 2766 1759 
L 2194 1759 
z
M 3341 1997 
L 3341 0 
L 2766 0 
L 2766 531 
Q 2569 213 2275 61 
Q 1981 -91 1556 -91 
Q 1019 -91 701 211 
Q 384 513 384 1019 
Q 384 1609 779 1909 
Q 1175 2209 1959 2209 
L 2766 2209 
L 2766 2266 
Q 2766 2663 2505 2880 
Q 2244 3097 1772 3097 
Q 1472 3097 1187 3025 
Q 903 2953 641 2809 
L 641 3341 
Q 956 3463 1253 3523 
Q 1550 3584 1831 3584 
Q 2591 3584 2966 3190 
Q 3341 2797 3341 1997 
z
" transform="scale(0.015625)"/>
     </defs>
     <use xlink:href="#DejaVuSans-44"/>
     <use xlink:href="#DejaVuSans-72" x="77.001953"/>
     <use xlink:href="#DejaVuSans-6f" x="115.865234"/>
     <use xlink:href="#DejaVuSans-75" x="177.046875"/>
     <use xlink:href="#DejaVuSans-67" x="240.425781"/>
     <use xlink:href="#DejaVuSans-68" x="303.902344"/>
     <use xlink:href="#DejaVuSans-74" x="367.28125"/>
     <use xlink:href="#DejaVuSans-20" x="406.490234"/>
     <use xlink:href="#DejaVuSans-79" x="438.277344"/>
     <use xlink:href="#DejaVuSans-65" x="497.457031"/>
     <use xlink:href="#DejaVuSans-61" x="558.980469"/>
     <use xlink:href="#DejaVuSans-72" x="620.259766"/>
     <use xlink:href="#DejaVuSans-20" x="661.373047"/>
     <use xlink:href="#DejaVuSans-32" x="693.160156"/>
     <use xlink:href="#DejaVuSans-30" x="756.783203"/>
     <use xlink:href="#DejaVuSans-31" x="820.40625"/>
     <use xlink:href="#DejaVuSans-38" x="884.029297"/>
    </g>
   </g>
  </g>
  <g id="axes_2">
   <g id="patch_7">
    <path d="M 57.71 314.44 
L 851.04 314.44 
L 851.04 195.88 
L 57.71 195.88 
L 57.71 314.44 
z
" style="fill: none"/>
   </g>
   <g id="matplotlib.axis_3">
    <g id="xtick_8">
     <g id="line2d_14">
      <g>
       <use xlink:href="#m9d94aace07" x="93.770455" y="314.44" style="stroke: #000000; stroke-width: 0.8"/>
      </g>
     </g>
     <g id="text_13">
      <!-- 2020-01 -->
      <g transform="translate(68.700767 330.558125) scale(0.12 -0.12)">
       <use xlink:href="#DejaVuSans-32"/>
       <use xlink:href="#DejaVuSans-30" x="63.623047"/>
       <use xlink:href="#DejaVuSans-32" x="127.246094"/>
       <use xlink:href="#DejaVuSans-30" x="190.869141"/>
       <use xlink:href="#DejaVuSans-2d" x="254.492188"/>
       <use xlink:href="#DejaVuSans-30" x="290.576172"/>
       <use xlink:href="#DejaVuSans-31" x="354.199219"/>
      </g>
     </g>
    </g>
    <g id="xtick_9">
     <g id="line2d_15">
      <g>
       <use xlink:href="#m9d94aace07" x="212.325374" y="314.44" style="stroke: #000000; stroke-width: 0.8"/>
      </g>
     </g>
     <g id="text_14">
      <!-- 2020-03 -->
      <g transform="translate(187.255686 330.558125) scale(0.12 -0.12)">
       <use xlink:href="#DejaVuSans-32"/>
       <use xlink:href="#DejaVuSans-30" x="63.623047"/>
       <use xlink:href="#DejaVuSans-32" x="127.246094"/>
       <use xlink:href="#DejaVuSans-30" x="190.869141"/>
       <use xlink:href="#DejaVuSans-2d" x="254.492188"/>
       <use xlink:href="#DejaVuSans-30" x="290.576172"/>
       <use xlink:href="#DejaVuSans-33" x="354.199219"/>
      </g>
     </g>
    </g>
    <g id="xtick_10">
     <g id="line2d_16">
      <g>
       <use xlink:href="#m9d94aace07" x="332.856208" y="314.44" style="stroke: #000000; stroke-width: 0.8"/>
      </g>
     </g>
     <g id="text_15">
      <!-- 2020-05 -->
      <g transform="translate(307.78652 330.558125) scale(0.12 -0.12)">
       <use xlink:href="#DejaVuSans-32"/>
       <use xlink:href="#DejaVuSans-30" x="63.623047"/>
       <use xlink:href="#DejaVuSans-32" x="127.246094"/>
       <use xlink:href="#DejaVuSans-30" x="190.869141"/>
       <use xlink:href="#DejaVuSans-2d" x="254.492188"/>
       <use xlink:href="#DejaVuSans-30" x="290.576172"/>
       <use xlink:href="#DejaVuSans-35" x="354.199219"/>
      </g>
     </g>
    </g>
    <g id="xtick_11">
     <g id="line2d_17">
      <g>
       <use xlink:href="#m9d94aace07" x="453.387042" y="314.44" style="stroke: #000000; stroke-width: 0.8"/>
      </g>
     </g>
     <g id="text_16">
      <!-- 2020-07 -->
      <g transform="translate(428.317355 330.558125) scale(0.12 -0.12)">
       <use xlink:href="#DejaVuSans-32"/>
       <use xlink:href="#DejaVuSans-30" x="63.623047"/>
       <use xlink:href="#DejaVuSans-32" x="127.246094"/>
       <use xlink:href="#DejaVuSans-30" x="190.869141"/>
       <use xlink:href="#DejaVuSans-2d" x="254.492188"/>
       <use xlink:href="#DejaVuSans-30" x="290.576172"/>
       <use xlink:href="#DejaVuSans-37" x="354.199219"/>
      </g>
     </g>
    </g>
    <g id="xtick_12">
     <g id="line2d_18">
      <g>
       <use xlink:href="#m9d94aace07" x="575.893792" y="314.44" style="stroke: #000000; stroke-width: 0.8"/>
      </g>
     </g>
     <g id="text_17">
      <!-- 2020-09 -->
      <g transform="translate(550.824105 330.558125) scale(0.12 -0.12)">
       <use xlink:href="#DejaVuSans-32"/>
       <use xlink:href="#DejaVuSans-30" x="63.623047"/>
       <use xlink:href="#DejaVuSans-32" x="127.246094"/>
       <use xlink:href="#DejaVuSans-30" x="190.869141"/>
       <use xlink:href="#DejaVuSans-2d" x="254.492188"/>
       <use xlink:href="#DejaVuSans-30" x="290.576172"/>
       <use xlink:href="#DejaVuSans-39" x="354.199219"/>
      </g>
     </g>
    </g>
    <g id="xtick_13">
     <g id="line2d_19">
      <g>
       <use xlink:href="#m9d94aace07" x="696.424626" y="314.44" style="stroke: #000000; stroke-width: 0.8"/>
      </g>
     </g>
     <g id="text_18">
      <!-- 2020-11 -->
      <g transform="translate(671.354939 330.558125) scale(0.12 -0.12)">
       <use xlink:href="#DejaVuSans-32"/>
       <use xlink:href="#DejaVuSans-30" x="63.623047"/>
       <use xlink:href="#DejaVuSans-32" x="127.246094"/>
       <use xlink:href="#DejaVuSans-30" x="190.869141"/>
       <use xlink:href="#DejaVuSans-2d" x="254.492188"/>
       <use xlink:href="#DejaVuSans-31" x="290.576172"/>
       <use xlink:href="#DejaVuSans-31" x="354.199219"/>
      </g>
     </g>
    </g>
    <g id="xtick_14">
     <g id="line2d_20">
      <g>
       <use xlink:href="#m9d94aace07" x="816.955461" y="314.44" style="stroke: #000000; stroke-width: 0.8"/>
      </g>
     </g>
     <g id="text_19">
      <!-- 2021-01 -->
      <g transform="translate(791.885773 330.558125) scale(0.12 -0.12)">
       <use xlink:href="#DejaVuSans-32"/>
       <use xlink:href="#DejaVuSans-30" x="63.623047"/>
       <use xlink:href="#DejaVuSans-32" x="127.246094"/>
       <use xlink:href="#DejaVuSans-31" x="190.869141"/>
       <use xlink:href="#DejaVuSans-2d" x="254.492188"/>
       <use xlink:href="#DejaVuSans-30" x="290.576172"/>
       <use xlink:href="#DejaVuSans-31" x="354.199219"/>
      </g>
     </g>
    </g>
    <g id="text_20">
     <!-- Time -->
     <g transform="translate(439.694687 346.171875) scale(0.12 -0.12)">
      <defs>
       <path id="DejaVuSans-54" d="M -19 4666 
L 3928 4666 
L 3928 4134 
L 2272 4134 
L 2272 0 
L 1638 0 
L 1638 4134 
L -19 4134 
L -19 4666 
z
" transform="scale(0.015625)"/>
      </defs>
      <use xlink:href="#DejaVuSans-54"/>
      <use xlink:href="#DejaVuSans-69" x="57.958984"/>
      <use xlink:href="#DejaVuSans-6d" x="85.742188"/>
      <use xlink:href="#DejaVuSans-65" x="183.154297"/>
     </g>
    </g>
   </g>
   <g id="matplotlib.axis_4">
    <g id="ytick_4">
     <g id="line2d_21">
      <g>
       <use xlink:href="#m642d1d563f" x="57.71" y="313.327074" style="stroke: #000000; stroke-width: 0.8"/>
      </g>
     </g>
     <g id="text_21">
      <!-- 300 -->
      <g transform="translate(27.805 317.886136) scale(0.12 -0.12)">
       <use xlink:href="#DejaVuSans-33"/>
       <use xlink:href="#DejaVuSans-30" x="63.623047"/>
       <use xlink:href="#DejaVuSans-30" x="127.246094"/>
      </g>
     </g>
    </g>
    <g id="ytick_5">
     <g id="line2d_22">
      <g>
       <use xlink:href="#m642d1d563f" x="57.71" y="269.432744" style="stroke: #000000; stroke-width: 0.8"/>
      </g>
     </g>
     <g id="text_22">
      <!-- 350 -->
      <g transform="translate(27.805 273.991807) scale(0.12 -0.12)">
       <use xlink:href="#DejaVuSans-33"/>
       <use xlink:href="#DejaVuSans-35" x="63.623047"/>
       <use xlink:href="#DejaVuSans-30" x="127.246094"/>
      </g>
     </g>
    </g>
    <g id="ytick_6">
     <g id="line2d_23">
      <g>
       <use xlink:href="#m642d1d563f" x="57.71" y="225.538415" style="stroke: #000000; stroke-width: 0.8"/>
      </g>
     </g>
     <g id="text_23">
      <!-- 400 -->
      <g transform="translate(27.805 230.097477) scale(0.12 -0.12)">
       <use xlink:href="#DejaVuSans-34"/>
       <use xlink:href="#DejaVuSans-30" x="63.623047"/>
       <use xlink:href="#DejaVuSans-30" x="127.246094"/>
      </g>
     </g>
    </g>
    <g id="text_24">
     <!-- Soil moisture (mm) -->
     <g transform="translate(21.309375 312.644687) rotate(-90) scale(0.12 -0.12)">
      <use xlink:href="#DejaVuSans-53"/>
      <use xlink:href="#DejaVuSans-6f" x="63.476562"/>
      <use xlink:href="#DejaVuSans-69" x="124.658203"/>
      <use xlink:href="#DejaVuSans-6c" x="152.441406"/>
      <use xlink:href="#DejaVuSans-20" x="180.224609"/>
      <use xlink:href="#DejaVuSans-6d" x="212.011719"/>
      <use xlink:href="#DejaVuSans-6f" x="309.423828"/>
      <use xlink:href="#DejaVuSans-69" x="370.605469"/>
      <use xlink:href="#DejaVuSans-73" x="398.388672"/>
      <use xlink:href="#DejaVuSans-74" x="450.488281"/>
      <use xlink:href="#DejaVuSans-75" x="489.697266"/>
      <use xlink:href="#DejaVuSans-72" x="553.076172"/>
      <use xlink:href="#DejaVuSans-65" x="591.939453"/>
      <use xlink:href="#DejaVuSans-20" x="653.462891"/>
      <use xlink:href="#DejaVuSans-28" x="685.25"/>
      <use xlink:href="#DejaVuSans-6d" x="724.263672"/>
      <use xlink:href="#DejaVuSans-6d" x="821.675781"/>
      <use xlink:href="#DejaVuSans-29" x="919.087891"/>
     </g>
    </g>
   </g>
   <g id="line2d_24">
    <path d="M 93.770455 205.977547 
L 95.74637 205.802889 
L 97.722285 206.2651 
L 103.650031 205.746099 
L 105.625946 205.627891 
L 111.553692 206.084181 
L 113.529608 205.767686 
L 119.457354 205.436346 
L 121.433269 205.135983 
L 123.409184 204.629477 
L 135.264676 203.765851 
L 139.216507 203.695345 
L 145.144253 204.037089 
L 147.120168 204.574804 
L 149.096083 204.577938 
L 153.047914 204.931538 
L 155.023829 204.956003 
L 156.999745 205.409446 
L 158.97566 205.682507 
L 168.855237 205.649501 
L 170.831152 205.846697 
L 172.807067 206.376717 
L 174.782983 206.436908 
L 178.734813 206.32262 
L 182.686644 206.55223 
L 188.61439 206.890054 
L 190.590305 207.194332 
L 206.397628 208.043288 
L 210.349458 208.58655 
L 212.325374 208.741138 
L 214.301289 209.08844 
L 218.25312 209.211019 
L 220.229035 209.575798 
L 222.20495 209.321436 
L 224.180866 209.679515 
L 228.132696 210.61828 
L 230.108611 210.209233 
L 232.084527 210.576977 
L 236.036357 210.942156 
L 238.012273 211.373858 
L 241.964103 212.56541 
L 245.915934 214.014197 
L 247.891849 214.274471 
L 249.867765 214.404613 
L 251.84368 214.695659 
L 255.795511 215.776256 
L 259.747341 217.018594 
L 261.723257 217.796485 
L 265.675087 219.721638 
L 267.651002 219.236259 
L 269.626918 218.943305 
L 271.602833 219.437444 
L 273.578748 220.1082 
L 279.506494 222.851263 
L 281.48241 224.079468 
L 285.43424 226.979175 
L 287.410156 228.604666 
L 291.361986 230.960179 
L 293.337902 232.379322 
L 295.313817 234.125727 
L 297.289732 235.06519 
L 299.265648 236.207311 
L 305.193394 241.018085 
L 309.145224 244.254495 
L 313.097055 247.658733 
L 317.048885 251.43157 
L 319.024801 253.390645 
L 321.000716 254.338933 
L 322.976631 255.520035 
L 324.952547 257.357456 
L 326.928462 257.287929 
L 328.904377 254.898355 
L 330.880293 251.335669 
L 332.856208 251.821581 
L 334.832123 249.649032 
L 336.808039 250.312185 
L 338.783954 250.358504 
L 340.759869 251.478795 
L 344.7117 255.400615 
L 348.663531 259.969849 
L 350.639446 261.292007 
L 352.615361 260.609213 
L 354.591276 261.152238 
L 356.567192 260.949609 
L 358.543107 262.584713 
L 364.470853 266.606468 
L 366.446768 268.134623 
L 368.422684 269.130954 
L 372.374514 272.869226 
L 374.35043 268.960103 
L 376.326345 269.266911 
L 378.30226 266.071413 
L 380.278176 266.137815 
L 382.254091 267.555542 
L 384.230006 269.46981 
L 386.205922 271.66697 
L 388.181837 274.238594 
L 392.133667 277.860518 
L 396.085498 284.086393 
L 398.061413 284.836844 
L 400.037329 277.484585 
L 402.013244 274.959358 
L 403.989159 274.853642 
L 405.965075 276.956385 
L 407.94099 278.676558 
L 409.916905 280.803308 
L 411.892821 283.211167 
L 413.868736 278.248482 
L 415.844651 280.399631 
L 417.820567 258.034288 
L 419.796482 253.030363 
L 421.772397 255.493445 
L 423.748313 257.194745 
L 425.724228 259.976593 
L 427.700143 253.623119 
L 429.676059 251.481026 
L 431.651974 253.166461 
L 433.627889 256.489755 
L 435.603804 259.443584 
L 437.57972 262.801003 
L 443.507466 271.987887 
L 445.483381 273.754615 
L 447.459296 275.179045 
L 449.435212 277.073989 
L 451.411127 278.125412 
L 453.387042 271.204393 
L 455.362958 271.733395 
L 457.338873 273.076218 
L 459.314788 269.989176 
L 461.290704 269.919842 
L 463.266619 268.971425 
L 465.242534 269.923716 
L 467.21845 270.217555 
L 469.194365 262.29164 
L 471.17028 261.497731 
L 473.146196 262.787024 
L 475.122111 264.501224 
L 477.098026 266.69228 
L 479.073941 266.653537 
L 481.049857 264.836278 
L 483.025772 266.413589 
L 485.001687 268.904252 
L 488.953518 273.506462 
L 490.929433 271.421353 
L 492.905349 273.07337 
L 494.881264 274.46175 
L 496.857179 277.398187 
L 500.80901 279.436639 
L 502.784925 276.836645 
L 504.760841 277.622088 
L 506.736756 279.592866 
L 508.712671 281.279301 
L 510.688587 283.77456 
L 512.664502 286.739041 
L 514.640417 288.541086 
L 516.616333 282.367033 
L 518.592248 283.869319 
L 520.568163 285.691146 
L 528.471824 297.105061 
L 530.44774 299.204177 
L 532.423655 299.469684 
L 534.39957 302.129246 
L 536.375486 304.430932 
L 538.351401 305.290685 
L 540.327316 304.961107 
L 542.303232 306.92375 
L 544.279147 309.050909 
L 546.255062 307.002449 
L 548.230978 305.890312 
L 550.206893 307.480296 
L 552.182808 308.777988 
L 554.158724 307.217035 
L 556.134639 307.585899 
L 558.110554 308.405657 
L 560.086469 306.60363 
L 562.062385 303.596464 
L 564.0383 295.712756 
L 566.014215 296.073102 
L 567.990131 294.037253 
L 571.941961 296.069588 
L 573.917877 296.261748 
L 575.893792 297.428522 
L 577.869707 298.000674 
L 579.845623 291.244902 
L 583.797453 289.555117 
L 589.725199 291.152713 
L 591.701115 290.952528 
L 593.67703 291.439373 
L 595.652945 292.471433 
L 603.556606 297.389283 
L 609.484352 299.776527 
L 611.460268 300.387816 
L 615.412098 302.229139 
L 619.363929 304.373426 
L 621.339844 302.774128 
L 623.31576 297.598219 
L 625.291675 279.738365 
L 627.26759 278.539802 
L 629.243506 278.990928 
L 633.195336 280.309828 
L 635.171252 280.973759 
L 637.147167 281.34777 
L 639.123082 280.270746 
L 641.098998 280.479338 
L 643.074913 278.959452 
L 645.050828 278.025053 
L 647.026743 276.606927 
L 649.002659 270.277716 
L 650.978574 270.36161 
L 652.954489 269.666605 
L 654.930405 268.70858 
L 656.90632 268.236765 
L 658.882235 268.346498 
L 660.858151 264.38444 
L 662.834066 264.005742 
L 664.809981 264.243431 
L 666.785897 264.049997 
L 668.761812 263.372539 
L 670.737727 263.260574 
L 672.713643 260.055996 
L 674.689558 257.723736 
L 676.665473 257.330387 
L 678.641389 254.911455 
L 680.617304 254.813793 
L 682.593219 254.060944 
L 684.569134 250.730382 
L 686.54505 250.359634 
L 688.520965 249.380604 
L 690.49688 247.159379 
L 692.472796 241.571754 
L 694.448711 241.500236 
L 696.424626 240.559772 
L 698.400542 238.383576 
L 702.352372 237.997006 
L 706.304203 238.051833 
L 712.231949 237.769901 
L 714.207864 237.809359 
L 716.18378 237.6744 
L 718.159695 237.422425 
L 720.13561 237.314238 
L 722.111526 236.874579 
L 724.087441 235.433556 
L 726.063356 234.643987 
L 728.039271 233.673112 
L 730.015187 233.406919 
L 733.967017 232.113729 
L 735.942933 231.816567 
L 739.894763 230.882142 
L 745.822509 230.082276 
L 751.750255 229.812969 
L 753.726171 229.174006 
L 755.702086 228.802683 
L 757.678001 228.682928 
L 761.629832 228.123366 
L 763.605747 227.572987 
L 765.581663 227.149534 
L 769.533493 226.718477 
L 771.509408 225.994709 
L 777.437154 225.268124 
L 779.41307 225.181167 
L 781.388985 224.445796 
L 783.3649 223.558758 
L 785.340816 223.452203 
L 787.316731 222.754364 
L 791.268562 222.063879 
L 793.244477 220.821102 
L 795.220392 219.783182 
L 799.172223 215.618192 
L 801.148138 214.641662 
L 803.124054 214.383704 
L 805.099969 214.250037 
L 807.075884 213.920494 
L 809.0518 213.253789 
L 811.027715 213.02983 
L 814.979545 212.780265 
L 814.979545 212.780265 
" clip-path="url(#p0d9d903062)" style="fill: none; stroke: #0076ba; stroke-width: 1.5; stroke-linecap: square"/>
   </g>
   <g id="line2d_25">
    <path d="M 93.770455 203.998656 
L 95.74637 203.823811 
L 97.722285 204.049057 
L 101.674116 203.822309 
L 105.625946 203.515195 
L 107.601862 203.593237 
L 109.577777 203.899971 
L 111.553692 203.902513 
L 113.529608 203.58436 
L 117.481438 203.306514 
L 119.457354 203.146705 
L 121.433269 202.833818 
L 123.409184 202.326672 
L 129.33693 201.760918 
L 133.288761 201.385287 
L 143.168337 201.269091 
L 145.144253 201.57931 
L 147.120168 202.939623 
L 149.096083 202.835887 
L 153.047914 203.068203 
L 155.023829 203.039927 
L 156.999745 204.149334 
L 158.97566 204.529438 
L 164.903406 204.352035 
L 168.855237 204.392114 
L 170.831152 204.760435 
L 172.807067 206.140548 
L 182.686644 206.234616 
L 184.662559 206.392145 
L 186.638474 206.352774 
L 188.61439 206.544124 
L 190.590305 206.876843 
L 194.542136 207.140569 
L 196.518051 207.198362 
L 198.493966 207.551207 
L 202.445797 207.945836 
L 204.421712 207.952364 
L 206.397628 208.095698 
L 210.349458 208.616225 
L 212.325374 208.795179 
L 214.301289 209.161289 
L 218.25312 209.321633 
L 220.229035 209.702659 
L 222.20495 209.187961 
L 224.180866 209.560459 
L 228.132696 210.581413 
L 230.108611 209.954532 
L 232.084527 210.40106 
L 234.060442 210.497007 
L 236.036357 210.782396 
L 238.012273 211.214364 
L 241.964103 212.40628 
L 243.940019 213.216789 
L 245.915934 213.885719 
L 251.84368 214.663206 
L 255.795511 215.743823 
L 259.747341 216.986183 
L 261.723257 217.764089 
L 265.675087 219.69281 
L 269.626918 219.556968 
L 271.602833 220.05592 
L 273.578748 220.7433 
L 281.48241 224.887699 
L 285.43424 227.786073 
L 287.410156 229.410814 
L 291.361986 231.76909 
L 293.337902 233.187568 
L 295.313817 234.937211 
L 297.289732 236.228656 
L 299.265648 237.373342 
L 305.193394 242.180805 
L 309.145224 245.414965 
L 313.097055 248.816818 
L 317.048885 252.58699 
L 319.024801 254.545797 
L 321.000716 255.603485 
L 322.976631 256.788756 
L 324.952547 258.625422 
L 326.928462 259.862218 
L 328.904377 256.761261 
L 330.880293 251.051515 
L 332.856208 252.679934 
L 334.832123 249.736938 
L 338.783954 251.891321 
L 340.759869 253.374034 
L 344.7117 257.298677 
L 348.663531 261.862698 
L 350.639446 263.503028 
L 352.615361 264.208778 
L 354.591276 265.470014 
L 356.567192 266.479797 
L 358.543107 268.269394 
L 368.422684 275.218932 
L 372.374514 278.942887 
L 374.35043 272.773277 
L 376.326345 274.054078 
L 378.30226 269.159475 
L 380.278176 269.992403 
L 382.254091 271.477528 
L 384.230006 273.448138 
L 386.205922 275.639578 
L 388.181837 278.204468 
L 392.133667 281.858267 
L 396.085498 288.067324 
L 398.061413 290.443543 
L 400.037329 277.684271 
L 402.013244 273.752154 
L 403.989159 274.831923 
L 409.916905 281.984941 
L 411.892821 284.416675 
L 413.868736 277.422568 
L 415.844651 279.821847 
L 417.820567 236.147266 
L 419.796482 230.939947 
L 421.772397 233.518844 
L 423.748313 235.66005 
L 425.724228 238.499111 
L 427.700143 230.999038 
L 429.676059 229.676723 
L 431.651974 231.64707 
L 433.627889 235.013443 
L 435.603804 238.014049 
L 437.57972 241.415647 
L 443.507466 250.943461 
L 445.483381 254.234357 
L 447.459296 256.093314 
L 449.435212 258.564718 
L 451.411127 259.750024 
L 453.387042 250.164128 
L 457.338873 254.600526 
L 459.314788 251.537688 
L 461.290704 252.714405 
L 463.266619 252.460857 
L 465.242534 254.182596 
L 467.21845 255.272067 
L 469.194365 244.167848 
L 471.17028 244.531277 
L 475.122111 248.086187 
L 477.098026 250.29997 
L 479.073941 251.445712 
L 481.049857 250.358937 
L 483.025772 252.173714 
L 485.001687 254.68683 
L 488.953518 259.346816 
L 490.929433 257.500739 
L 494.881264 261.028899 
L 496.857179 264.015445 
L 500.80901 268.325063 
L 502.784925 265.336802 
L 504.760841 266.962777 
L 506.736756 269.292544 
L 508.712671 271.061906 
L 510.688587 273.574192 
L 512.664502 276.559038 
L 514.640417 279.10974 
L 516.616333 269.40338 
L 520.568163 273.12134 
L 526.495909 281.770702 
L 528.471824 284.643586 
L 530.44774 287.003778 
L 532.423655 289.081461 
L 534.39957 291.802691 
L 536.375486 294.147974 
L 538.351401 296.179293 
L 540.327316 297.274689 
L 544.279147 301.689952 
L 546.255062 299.870457 
L 548.230978 299.959799 
L 550.206893 301.765745 
L 552.182808 303.402474 
L 554.158724 302.86074 
L 558.110554 305.721862 
L 560.086469 305.335517 
L 562.062385 302.242505 
L 564.0383 290.205415 
L 566.014215 291.134948 
L 567.990131 289.625305 
L 571.941961 292.162075 
L 573.917877 293.129677 
L 575.893792 294.412118 
L 577.869707 295.256052 
L 579.845623 284.709932 
L 581.821538 285.565886 
L 583.797453 285.86918 
L 587.749284 287.537305 
L 589.725199 288.126517 
L 591.701115 288.933283 
L 593.67703 289.593847 
L 595.652945 290.629156 
L 603.556606 295.55468 
L 609.484352 297.984259 
L 611.460268 298.596338 
L 615.412098 300.440045 
L 619.363929 302.587125 
L 621.339844 302.445324 
L 623.31576 295.456536 
L 625.291675 263.730435 
L 627.26759 263.917713 
L 629.243506 264.532224 
L 633.195336 266.00326 
L 635.171252 266.740995 
L 637.147167 267.19226 
L 639.123082 267.87388 
L 643.074913 268.283281 
L 645.050828 268.414195 
L 647.026743 268.727944 
L 649.002659 260.026217 
L 652.954489 260.668426 
L 656.90632 261.379792 
L 658.882235 261.653955 
L 660.858151 257.215434 
L 662.834066 257.365655 
L 664.809981 257.662232 
L 666.785897 257.771285 
L 668.761812 257.691814 
L 670.737727 257.781637 
L 672.713643 254.468753 
L 674.689558 253.031895 
L 676.665473 253.213529 
L 678.641389 251.401319 
L 680.617304 251.63642 
L 682.593219 251.743455 
L 684.569134 248.250883 
L 686.54505 248.135492 
L 688.520965 248.206991 
L 690.49688 246.317477 
L 692.472796 237.763739 
L 696.424626 238.02422 
L 698.400542 235.847691 
L 702.352372 235.463047 
L 708.280118 235.461393 
L 714.207864 235.345328 
L 716.18378 235.415455 
L 718.159695 235.323741 
L 720.13561 235.438568 
L 722.111526 235.294842 
L 724.087441 234.644519 
L 730.015187 234.246166 
L 735.942933 233.365991 
L 737.918848 233.232209 
L 741.870679 232.603439 
L 743.846594 232.325554 
L 757.678001 232.01042 
L 763.605747 231.488402 
L 767.557578 231.44801 
L 769.533493 231.246192 
L 779.41307 231.06217 
L 781.388985 230.867192 
L 783.3649 230.344136 
L 785.340816 230.263961 
L 791.268562 229.236864 
L 793.244477 227.604486 
L 795.220392 226.570965 
L 799.172223 217.356792 
L 801.148138 215.859354 
L 803.124054 215.616883 
L 807.075884 215.375913 
L 809.0518 214.50982 
L 814.979545 214.212248 
L 814.979545 214.212248 
" clip-path="url(#p0d9d903062)" style="fill: none; stroke-dasharray: 1.5,2.475; stroke-dashoffset: 0; stroke: #004d80; stroke-width: 1.5"/>
   </g>
   <g id="line2d_26">
    <path d="M 93.770455 207.098442 
L 95.74637 206.923889 
L 97.722285 207.096868 
L 99.6982 206.813676 
L 105.625946 206.431826 
L 111.553692 206.720774 
L 113.529608 206.428397 
L 117.481438 206.229952 
L 119.457354 206.126071 
L 121.433269 205.854896 
L 123.409184 205.390885 
L 133.288761 204.764468 
L 137.240592 204.843937 
L 139.216507 204.814012 
L 153.047914 205.625227 
L 155.023829 205.582511 
L 158.97566 205.97009 
L 166.879321 206.03644 
L 170.831152 206.168602 
L 172.807067 206.409114 
L 174.782983 206.45736 
L 178.734813 206.308177 
L 182.686644 206.582188 
L 186.638474 206.617099 
L 190.590305 207.143048 
L 200.469882 207.512201 
L 202.445797 207.737283 
L 204.421712 207.754977 
L 206.397628 207.904654 
L 214.301289 209.00391 
L 218.25312 209.136214 
L 220.229035 209.48734 
L 222.20495 209.394022 
L 224.180866 209.731698 
L 228.132696 210.634848 
L 230.108611 210.406255 
L 234.060442 211.062199 
L 236.036357 211.249236 
L 239.988188 212.097654 
L 241.964103 212.664907 
L 243.940019 213.372393 
L 245.915934 213.941256 
L 251.84368 214.335678 
L 255.795511 215.176169 
L 259.747341 216.148455 
L 261.723257 216.779235 
L 265.675087 218.378694 
L 267.651002 218.042885 
L 269.626918 217.927147 
L 271.602833 218.247633 
L 273.578748 218.746286 
L 281.48241 221.988209 
L 285.43424 224.395023 
L 287.410156 225.748441 
L 291.361986 227.51156 
L 293.337902 228.616205 
L 295.313817 230.036828 
L 299.265648 231.614211 
L 305.193394 235.285811 
L 309.145224 237.692967 
L 313.097055 240.218274 
L 317.048885 243.061407 
L 319.024801 244.536156 
L 321.000716 245.043382 
L 322.976631 245.720382 
L 324.952547 247.049284 
L 326.928462 247.362298 
L 328.904377 246.417726 
L 330.880293 245.023171 
L 332.856208 245.628065 
L 334.832123 244.815175 
L 336.808039 245.217179 
L 338.783954 245.28393 
L 340.759869 246.08917 
L 344.7117 248.969034 
L 348.663531 252.445779 
L 350.639446 253.372281 
L 352.615361 252.864379 
L 354.591276 253.225121 
L 356.567192 253.42137 
L 358.543107 254.56711 
L 364.470853 256.901584 
L 366.446768 257.852393 
L 368.422684 258.360805 
L 370.398599 259.695646 
L 372.374514 260.874 
L 374.35043 259.253548 
L 376.326345 259.471794 
L 378.30226 258.228378 
L 380.278176 258.091377 
L 382.254091 258.935493 
L 384.230006 260.268379 
L 386.205922 261.844091 
L 388.181837 263.78726 
L 392.133667 266.136282 
L 396.085498 271.055678 
L 398.061413 272.008125 
L 400.037329 268.607976 
L 402.013244 267.985644 
L 403.989159 268.375528 
L 405.965075 269.928633 
L 407.94099 271.333753 
L 409.916905 272.912827 
L 411.892821 274.638991 
L 413.868736 271.877625 
L 415.844651 273.464647 
L 417.820567 263.4242 
L 419.796482 260.617546 
L 421.772397 262.468936 
L 423.748313 263.701581 
L 425.724228 265.824849 
L 427.700143 262.497544 
L 429.676059 261.443796 
L 431.651974 262.588179 
L 433.627889 265.242314 
L 435.603804 267.517482 
L 437.57972 270.178423 
L 443.507466 277.309181 
L 445.483381 279.048597 
L 447.459296 279.928379 
L 449.435212 281.339977 
L 451.411127 281.69986 
L 453.387042 277.866989 
L 455.362958 278.419911 
L 457.338873 279.450238 
L 459.314788 277.60408 
L 463.266619 277.148171 
L 465.242534 277.716308 
L 467.21845 277.644319 
L 469.194365 272.910144 
L 471.17028 272.409471 
L 473.146196 273.173457 
L 475.122111 274.206418 
L 477.098026 275.669265 
L 479.073941 275.944347 
L 481.049857 274.727605 
L 483.025772 275.677971 
L 485.001687 277.432039 
L 486.977603 278.918902 
L 488.953518 280.55095 
L 490.929433 279.425497 
L 492.905349 280.406901 
L 494.881264 281.183825 
L 496.857179 283.37269 
L 500.80901 284.961889 
L 502.784925 283.664837 
L 504.760841 284.084662 
L 506.736756 285.452874 
L 508.712671 286.403933 
L 510.688587 288.124244 
L 512.664502 290.307474 
L 514.640417 291.683051 
L 516.616333 288.552896 
L 518.592248 289.404477 
L 520.568163 290.487213 
L 526.495909 296.678413 
L 528.471824 298.717062 
L 530.44774 300.127984 
L 532.423655 300.598086 
L 534.39957 302.466155 
L 536.375486 303.965657 
L 538.351401 304.586766 
L 540.327316 304.148196 
L 544.279147 306.752175 
L 546.255062 305.783257 
L 548.230978 305.227285 
L 550.206893 306.1011 
L 552.182808 306.743863 
L 554.158724 305.837077 
L 556.134639 305.920073 
L 558.110554 306.218849 
L 560.086469 304.858322 
L 562.062385 303.042743 
L 564.0383 298.385356 
L 566.014215 298.219841 
L 567.990131 297.019483 
L 571.941961 297.691128 
L 573.917877 297.464026 
L 575.893792 297.884195 
L 577.869707 297.788003 
L 579.845623 294.085635 
L 581.821538 293.417265 
L 583.797453 292.357493 
L 587.749284 292.175349 
L 589.725199 291.91694 
L 591.701115 291.432263 
L 593.67703 291.221566 
L 595.652945 291.471882 
L 603.556606 293.25512 
L 609.484352 293.302594 
L 611.460268 293.127256 
L 615.412098 293.400605 
L 619.363929 293.97875 
L 621.339844 292.848393 
L 623.31576 289.823633 
L 625.291675 280.404583 
L 627.26759 279.152591 
L 629.243506 278.944669 
L 631.219421 278.960139 
L 635.171252 278.822788 
L 637.147167 278.498578 
L 639.123082 277.578862 
L 641.098998 277.081084 
L 643.074913 275.685826 
L 645.050828 274.573067 
L 647.026743 273.323292 
L 649.002659 269.508542 
L 650.978574 268.999805 
L 656.90632 266.443359 
L 658.882235 265.963214 
L 660.858151 263.367334 
L 662.834066 262.600882 
L 664.809981 262.218388 
L 666.785897 261.531798 
L 668.761812 260.517809 
L 670.737727 259.873453 
L 672.713643 257.800421 
L 674.689558 255.970694 
L 676.665473 255.266341 
L 678.641389 253.474533 
L 680.617304 252.960802 
L 682.593219 252.066741 
L 684.569134 249.729972 
L 686.54505 248.933603 
L 688.520965 247.942662 
L 690.49688 246.367006 
L 692.472796 243.096698 
L 694.448711 242.600809 
L 696.424626 241.719652 
L 698.400542 240.21564 
L 702.352372 238.904247 
L 708.280118 237.527779 
L 714.207864 236.108593 
L 716.18378 235.658067 
L 718.159695 235.072834 
L 720.13561 234.67217 
L 722.111526 233.984245 
L 724.087441 232.827663 
L 728.039271 231.138646 
L 730.015187 230.552724 
L 733.967017 228.895482 
L 737.918848 227.702464 
L 739.894763 226.968389 
L 743.846594 225.80944 
L 745.822509 225.389334 
L 749.77434 224.787786 
L 751.750255 224.382902 
L 753.726171 223.822582 
L 761.629832 222.059152 
L 763.605747 221.528763 
L 769.533493 220.380524 
L 771.509408 219.88629 
L 779.41307 218.708602 
L 783.3649 217.634348 
L 785.340816 217.37315 
L 787.316731 216.741 
L 791.268562 215.749215 
L 795.220392 214.538405 
L 799.172223 213.014585 
L 801.148138 212.558731 
L 803.124054 212.224942 
L 807.075884 211.754423 
L 809.0518 211.404555 
L 814.979545 210.864649 
L 814.979545 210.864649 
" clip-path="url(#p0d9d903062)" style="fill: none; stroke-dasharray: 5.55,2.4; stroke-dashoffset: 0; stroke: #56c1ff; stroke-width: 1.5"/>
   </g>
   <g id="patch_8">
    <path d="M 57.71 314.44 
L 57.71 195.88 
" style="fill: none; stroke: #000000; stroke-width: 0.8; stroke-linejoin: miter; stroke-linecap: square"/>
   </g>
   <g id="patch_9">
    <path d="M 851.04 314.44 
L 851.04 195.88 
" style="fill: none; stroke: #000000; stroke-width: 0.8; stroke-linejoin: miter; stroke-linecap: square"/>
   </g>
   <g id="patch_10">
    <path d="M 57.71 314.44 
L 851.04 314.44 
" style="fill: none; stroke: #000000; stroke-width: 0.8; stroke-linejoin: miter; stroke-linecap: square"/>
   </g>
   <g id="patch_11">
    <path d="M 57.71 195.88 
L 851.04 195.88 
" style="fill: none; stroke: #000000; stroke-width: 0.8; stroke-linejoin: miter; stroke-linecap: square"/>
   </g>
   <g id="text_25">
    <!-- Non-drought year 2020 -->
    <g transform="translate(370.16425 189.88) scale(0.144 -0.144)">
     <defs>
      <path id="DejaVuSans-4e" d="M 628 4666 
L 1478 4666 
L 3547 763 
L 3547 4666 
L 4159 4666 
L 4159 0 
L 3309 0 
L 1241 3903 
L 1241 0 
L 628 0 
L 628 4666 
z
" transform="scale(0.015625)"/>
      <path id="DejaVuSans-6e" d="M 3513 2113 
L 3513 0 
L 2938 0 
L 2938 2094 
Q 2938 2591 2744 2837 
Q 2550 3084 2163 3084 
Q 1697 3084 1428 2787 
Q 1159 2491 1159 1978 
L 1159 0 
L 581 0 
L 581 3500 
L 1159 3500 
L 1159 2956 
Q 1366 3272 1645 3428 
Q 1925 3584 2291 3584 
Q 2894 3584 3203 3211 
Q 3513 2838 3513 2113 
z
" transform="scale(0.015625)"/>
      <path id="DejaVuSans-64" d="M 2906 2969 
L 2906 4863 
L 3481 4863 
L 3481 0 
L 2906 0 
L 2906 525 
Q 2725 213 2448 61 
Q 2172 -91 1784 -91 
Q 1150 -91 751 415 
Q 353 922 353 1747 
Q 353 2572 751 3078 
Q 1150 3584 1784 3584 
Q 2172 3584 2448 3432 
Q 2725 3281 2906 2969 
z
M 947 1747 
Q 947 1113 1208 752 
Q 1469 391 1925 391 
Q 2381 391 2643 752 
Q 2906 1113 2906 1747 
Q 2906 2381 2643 2742 
Q 2381 3103 1925 3103 
Q 1469 3103 1208 2742 
Q 947 2381 947 1747 
z
" transform="scale(0.015625)"/>
     </defs>
     <use xlink:href="#DejaVuSans-4e"/>
     <use xlink:href="#DejaVuSans-6f" x="74.804688"/>
     <use xlink:href="#DejaVuSans-6e" x="135.986328"/>
     <use xlink:href="#DejaVuSans-2d" x="199.365234"/>
     <use xlink:href="#DejaVuSans-64" x="235.449219"/>
     <use xlink:href="#DejaVuSans-72" x="298.925781"/>
     <use xlink:href="#DejaVuSans-6f" x="337.789062"/>
     <use xlink:href="#DejaVuSans-75" x="398.970703"/>
     <use xlink:href="#DejaVuSans-67" x="462.349609"/>
     <use xlink:href="#DejaVuSans-68" x="525.826172"/>
     <use xlink:href="#DejaVuSans-74" x="589.205078"/>
     <use xlink:href="#DejaVuSans-20" x="628.414062"/>
     <use xlink:href="#DejaVuSans-79" x="660.201172"/>
     <use xlink:href="#DejaVuSans-65" x="719.380859"/>
     <use xlink:href="#DejaVuSans-61" x="780.904297"/>
     <use xlink:href="#DejaVuSans-72" x="842.183594"/>
     <use xlink:href="#DejaVuSans-20" x="883.296875"/>
     <use xlink:href="#DejaVuSans-32" x="915.083984"/>
     <use xlink:href="#DejaVuSans-30" x="978.707031"/>
     <use xlink:href="#DejaVuSans-32" x="1042.330078"/>
     <use xlink:href="#DejaVuSans-30" x="1105.953125"/>
    </g>
   </g>
   <g id="legend_1">
    <g id="patch_12">
     <path d="M 66.11 308.44 
L 211.24625 308.44 
Q 213.64625 308.44 213.64625 306.04 
L 213.64625 254.39875 
Q 213.64625 251.99875 211.24625 251.99875 
L 66.11 251.99875 
Q 63.71 251.99875 63.71 254.39875 
L 63.71 306.04 
Q 63.71 308.44 66.11 308.44 
z
" style="fill: #ffffff; opacity: 0.8; stroke: #cccccc; stroke-linejoin: miter"/>
    </g>
    <g id="line2d_27">
     <path d="M 68.51 261.716875 
L 80.51 261.716875 
L 92.51 261.716875 
" style="fill: none; stroke: #0076ba; stroke-width: 1.5; stroke-linecap: square"/>
    </g>
    <g id="text_26">
     <!-- Normal variability -->
     <g transform="translate(102.11 265.916875) scale(0.12 -0.12)">
      <defs>
       <path id="DejaVuSans-76" d="M 191 3500 
L 800 3500 
L 1894 563 
L 2988 3500 
L 3597 3500 
L 2284 0 
L 1503 0 
L 191 3500 
z
" transform="scale(0.015625)"/>
       <path id="DejaVuSans-62" d="M 3116 1747 
Q 3116 2381 2855 2742 
Q 2594 3103 2138 3103 
Q 1681 3103 1420 2742 
Q 1159 2381 1159 1747 
Q 1159 1113 1420 752 
Q 1681 391 2138 391 
Q 2594 391 2855 752 
Q 3116 1113 3116 1747 
z
M 1159 2969 
Q 1341 3281 1617 3432 
Q 1894 3584 2278 3584 
Q 2916 3584 3314 3078 
Q 3713 2572 3713 1747 
Q 3713 922 3314 415 
Q 2916 -91 2278 -91 
Q 1894 -91 1617 61 
Q 1341 213 1159 525 
L 1159 0 
L 581 0 
L 581 4863 
L 1159 4863 
L 1159 2969 
z
" transform="scale(0.015625)"/>
      </defs>
      <use xlink:href="#DejaVuSans-4e"/>
      <use xlink:href="#DejaVuSans-6f" x="74.804688"/>
      <use xlink:href="#DejaVuSans-72" x="135.986328"/>
      <use xlink:href="#DejaVuSans-6d" x="175.349609"/>
      <use xlink:href="#DejaVuSans-61" x="272.761719"/>
      <use xlink:href="#DejaVuSans-6c" x="334.041016"/>
      <use xlink:href="#DejaVuSans-20" x="361.824219"/>
      <use xlink:href="#DejaVuSans-76" x="393.611328"/>
      <use xlink:href="#DejaVuSans-61" x="452.791016"/>
      <use xlink:href="#DejaVuSans-72" x="514.070312"/>
      <use xlink:href="#DejaVuSans-69" x="555.183594"/>
      <use xlink:href="#DejaVuSans-61" x="582.966797"/>
      <use xlink:href="#DejaVuSans-62" x="644.246094"/>
      <use xlink:href="#DejaVuSans-69" x="707.722656"/>
      <use xlink:href="#DejaVuSans-6c" x="735.505859"/>
      <use xlink:href="#DejaVuSans-69" x="763.289062"/>
      <use xlink:href="#DejaVuSans-74" x="791.072266"/>
      <use xlink:href="#DejaVuSans-79" x="830.28125"/>
     </g>
    </g>
    <g id="line2d_28">
     <path d="M 68.51 279.330625 
L 80.51 279.330625 
L 92.51 279.330625 
" style="fill: none; stroke-dasharray: 1.5,2.475; stroke-dashoffset: 0; stroke: #004d80; stroke-width: 1.5"/>
    </g>
    <g id="text_27">
     <!-- Double variability -->
     <g transform="translate(102.11 283.530625) scale(0.12 -0.12)">
      <use xlink:href="#DejaVuSans-44"/>
      <use xlink:href="#DejaVuSans-6f" x="77.001953"/>
      <use xlink:href="#DejaVuSans-75" x="138.183594"/>
      <use xlink:href="#DejaVuSans-62" x="201.5625"/>
      <use xlink:href="#DejaVuSans-6c" x="265.039062"/>
      <use xlink:href="#DejaVuSans-65" x="292.822266"/>
      <use xlink:href="#DejaVuSans-20" x="354.345703"/>
      <use xlink:href="#DejaVuSans-76" x="386.132812"/>
      <use xlink:href="#DejaVuSans-61" x="445.3125"/>
      <use xlink:href="#DejaVuSans-72" x="506.591797"/>
      <use xlink:href="#DejaVuSans-69" x="547.705078"/>
      <use xlink:href="#DejaVuSans-61" x="575.488281"/>
      <use xlink:href="#DejaVuSans-62" x="636.767578"/>
      <use xlink:href="#DejaVuSans-69" x="700.244141"/>
      <use xlink:href="#DejaVuSans-6c" x="728.027344"/>
      <use xlink:href="#DejaVuSans-69" x="755.810547"/>
      <use xlink:href="#DejaVuSans-74" x="783.59375"/>
      <use xlink:href="#DejaVuSans-79" x="822.802734"/>
     </g>
    </g>
    <g id="line2d_29">
     <path d="M 68.51 296.944375 
L 80.51 296.944375 
L 92.51 296.944375 
" style="fill: none; stroke-dasharray: 5.55,2.4; stroke-dashoffset: 0; stroke: #56c1ff; stroke-width: 1.5"/>
    </g>
    <g id="text_28">
     <!-- Half variability -->
     <g transform="translate(102.11 301.144375) scale(0.12 -0.12)">
      <defs>
       <path id="DejaVuSans-48" d="M 628 4666 
L 1259 4666 
L 1259 2753 
L 3553 2753 
L 3553 4666 
L 4184 4666 
L 4184 0 
L 3553 0 
L 3553 2222 
L 1259 2222 
L 1259 0 
L 628 0 
L 628 4666 
z
" transform="scale(0.015625)"/>
       <path id="DejaVuSans-66" d="M 2375 4863 
L 2375 4384 
L 1825 4384 
Q 1516 4384 1395 4259 
Q 1275 4134 1275 3809 
L 1275 3500 
L 2222 3500 
L 2222 3053 
L 1275 3053 
L 1275 0 
L 697 0 
L 697 3053 
L 147 3053 
L 147 3500 
L 697 3500 
L 697 3744 
Q 697 4328 969 4595 
Q 1241 4863 1831 4863 
L 2375 4863 
z
" transform="scale(0.015625)"/>
      </defs>
      <use xlink:href="#DejaVuSans-48"/>
      <use xlink:href="#DejaVuSans-61" x="75.195312"/>
      <use xlink:href="#DejaVuSans-6c" x="136.474609"/>
      <use xlink:href="#DejaVuSans-66" x="164.257812"/>
      <use xlink:href="#DejaVuSans-20" x="199.462891"/>
      <use xlink:href="#DejaVuSans-76" x="231.25"/>
      <use xlink:href="#DejaVuSans-61" x="290.429688"/>
      <use xlink:href="#DejaVuSans-72" x="351.708984"/>
      <use xlink:href="#DejaVuSans-69" x="392.822266"/>
      <use xlink:href="#DejaVuSans-61" x="420.605469"/>
      <use xlink:href="#DejaVuSans-62" x="481.884766"/>
      <use xlink:href="#DejaVuSans-69" x="545.361328"/>
      <use xlink:href="#DejaVuSans-6c" x="573.144531"/>
      <use xlink:href="#DejaVuSans-69" x="600.927734"/>
      <use xlink:href="#DejaVuSans-74" x="628.710938"/>
      <use xlink:href="#DejaVuSans-79" x="667.919922"/>
     </g>
    </g>
   </g>
  </g>
 </g>
 <defs>
  <clipPath id="pc72e550000">
   <rect x="57.71" y="29.76" width="793.33" height="118.56"/>
  </clipPath>
  <clipPath id="p0d9d903062">
   <rect x="57.71" y="195.88" width="793.33" height="118.56"/>
  </clipPath>
 </defs>
</svg>
