<?xml version="1.0" encoding="utf-8" standalone="no"?>
<!DOCTYPE svg PUBLIC "-//W3C//DTD SVG 1.1//EN"
  "http://www.w3.org/Graphics/SVG/1.1/DTD/svg11.dtd">
<svg xmlns:xlink="http://www.w3.org/1999/xlink" width="864pt" height="360pt" viewBox="0 0 864 360" xmlns="http://www.w3.org/2000/svg" version="1.1">
 <metadata>
  <rdf:RDF xmlns:dc="http://purl.org/dc/elements/1.1/" xmlns:cc="http://creativecommons.org/ns#" xmlns:rdf="http://www.w3.org/1999/02/22-rdf-syntax-ns#">
   <cc:Work>
    <dc:type rdf:resource="http://purl.org/dc/dcmitype/StillImage"/>
    <dc:date>2024-05-14T16:29:42.129486</dc:date>
    <dc:format>image/svg+xml</dc:format>
    <dc:creator>
     <cc:Agent>
      <dc:title>Matplotlib v3.8.4, https://matplotlib.org/</dc:title>
     </cc:Agent>
    </dc:creator>
   </cc:Work>
  </rdf:RDF>
 </metadata>
 <defs>
  <style type="text/css">*{stroke-linejoin: round; stroke-linecap: butt}</style>
 </defs>
 <g id="figure_1">
  <g id="patch_1">
   <path d="M 0 360 
L 864 360 
L 864 0 
L 0 0 
L 0 360 
z
" style="fill: none"/>
  </g>
  <g id="axes_1">
   <g id="patch_2">
    <path d="M 57.71 148.32 
L 851.04 148.32 
L 851.04 29.76 
L 57.71 29.76 
L 57.71 148.32 
z
" style="fill: none"/>
   </g>
   <g id="matplotlib.axis_1">
    <g id="xtick_1">
     <g id="line2d_1">
      <defs>
       <path id="ma4c2ab2f04" d="M 0 0 
L 0 3.5 
" style="stroke: #000000; stroke-width: 0.8"/>
      </defs>
      <g>
       <use xlink:href="#ma4c2ab2f04" x="93.770455" y="148.32" style="stroke: #000000; stroke-width: 0.8"/>
      </g>
     </g>
     <g id="text_1">
      <!-- 2020-01 -->
      <g transform="translate(68.700767 164.438125) scale(0.12 -0.12)">
       <defs>
        <path id="DejaVuSans-32" d="M 1228 531 
L 3431 531 
L 3431 0 
L 469 0 
L 469 531 
Q 828 903 1448 1529 
Q 2069 2156 2228 2338 
Q 2531 2678 2651 2914 
Q 2772 3150 2772 3378 
Q 2772 3750 2511 3984 
Q 2250 4219 1831 4219 
Q 1534 4219 1204 4116 
Q 875 4013 500 3803 
L 500 4441 
Q 881 4594 1212 4672 
Q 1544 4750 1819 4750 
Q 2544 4750 2975 4387 
Q 3406 4025 3406 3419 
Q 3406 3131 3298 2873 
Q 3191 2616 2906 2266 
Q 2828 2175 2409 1742 
Q 1991 1309 1228 531 
z
" transform="scale(0.015625)"/>
        <path id="DejaVuSans-30" d="M 2034 4250 
Q 1547 4250 1301 3770 
Q 1056 3291 1056 2328 
Q 1056 1369 1301 889 
Q 1547 409 2034 409 
Q 2525 409 2770 889 
Q 3016 1369 3016 2328 
Q 3016 3291 2770 3770 
Q 2525 4250 2034 4250 
z
M 2034 4750 
Q 2819 4750 3233 4129 
Q 3647 3509 3647 2328 
Q 3647 1150 3233 529 
Q 2819 -91 2034 -91 
Q 1250 -91 836 529 
Q 422 1150 422 2328 
Q 422 3509 836 4129 
Q 1250 4750 2034 4750 
z
" transform="scale(0.015625)"/>
        <path id="DejaVuSans-2d" d="M 313 2009 
L 1997 2009 
L 1997 1497 
L 313 1497 
L 313 2009 
z
" transform="scale(0.015625)"/>
        <path id="DejaVuSans-31" d="M 794 531 
L 1825 531 
L 1825 4091 
L 703 3866 
L 703 4441 
L 1819 4666 
L 2450 4666 
L 2450 531 
L 3481 531 
L 3481 0 
L 794 0 
L 794 531 
z
" transform="scale(0.015625)"/>
       </defs>
       <use xlink:href="#DejaVuSans-32"/>
       <use xlink:href="#DejaVuSans-30" x="63.623047"/>
       <use xlink:href="#DejaVuSans-32" x="127.246094"/>
       <use xlink:href="#DejaVuSans-30" x="190.869141"/>
       <use xlink:href="#DejaVuSans-2d" x="254.492188"/>
       <use xlink:href="#DejaVuSans-30" x="290.576172"/>
       <use xlink:href="#DejaVuSans-31" x="354.199219"/>
      </g>
     </g>
    </g>
    <g id="xtick_2">
     <g id="line2d_2">
      <g>
       <use xlink:href="#ma4c2ab2f04" x="212.325374" y="148.32" style="stroke: #000000; stroke-width: 0.8"/>
      </g>
     </g>
     <g id="text_2">
      <!-- 2020-03 -->
      <g transform="translate(187.255686 164.438125) scale(0.12 -0.12)">
       <defs>
        <path id="DejaVuSans-33" d="M 2597 2516 
Q 3050 2419 3304 2112 
Q 3559 1806 3559 1356 
Q 3559 666 3084 287 
Q 2609 -91 1734 -91 
Q 1441 -91 1130 -33 
Q 819 25 488 141 
L 488 750 
Q 750 597 1062 519 
Q 1375 441 1716 441 
Q 2309 441 2620 675 
Q 2931 909 2931 1356 
Q 2931 1769 2642 2001 
Q 2353 2234 1838 2234 
L 1294 2234 
L 1294 2753 
L 1863 2753 
Q 2328 2753 2575 2939 
Q 2822 3125 2822 3475 
Q 2822 3834 2567 4026 
Q 2313 4219 1838 4219 
Q 1578 4219 1281 4162 
Q 984 4106 628 3988 
L 628 4550 
Q 988 4650 1302 4700 
Q 1616 4750 1894 4750 
Q 2613 4750 3031 4423 
Q 3450 4097 3450 3541 
Q 3450 3153 3228 2886 
Q 3006 2619 2597 2516 
z
" transform="scale(0.015625)"/>
       </defs>
       <use xlink:href="#DejaVuSans-32"/>
       <use xlink:href="#DejaVuSans-30" x="63.623047"/>
       <use xlink:href="#DejaVuSans-32" x="127.246094"/>
       <use xlink:href="#DejaVuSans-30" x="190.869141"/>
       <use xlink:href="#DejaVuSans-2d" x="254.492188"/>
       <use xlink:href="#DejaVuSans-30" x="290.576172"/>
       <use xlink:href="#DejaVuSans-33" x="354.199219"/>
      </g>
     </g>
    </g>
    <g id="xtick_3">
     <g id="line2d_3">
      <g>
       <use xlink:href="#ma4c2ab2f04" x="332.856208" y="148.32" style="stroke: #000000; stroke-width: 0.8"/>
      </g>
     </g>
     <g id="text_3">
      <!-- 2020-05 -->
      <g transform="translate(307.78652 164.438125) scale(0.12 -0.12)">
       <defs>
        <path id="DejaVuSans-35" d="M 691 4666 
L 3169 4666 
L 3169 4134 
L 1269 4134 
L 1269 2991 
Q 1406 3038 1543 3061 
Q 1681 3084 1819 3084 
Q 2600 3084 3056 2656 
Q 3513 2228 3513 1497 
Q 3513 744 3044 326 
Q 2575 -91 1722 -91 
Q 1428 -91 1123 -41 
Q 819 9 494 109 
L 494 744 
Q 775 591 1075 516 
Q 1375 441 1709 441 
Q 2250 441 2565 725 
Q 2881 1009 2881 1497 
Q 2881 1984 2565 2268 
Q 2250 2553 1709 2553 
Q 1456 2553 1204 2497 
Q 953 2441 691 2322 
L 691 4666 
z
" transform="scale(0.015625)"/>
       </defs>
       <use xlink:href="#DejaVuSans-32"/>
       <use xlink:href="#DejaVuSans-30" x="63.623047"/>
       <use xlink:href="#DejaVuSans-32" x="127.246094"/>
       <use xlink:href="#DejaVuSans-30" x="190.869141"/>
       <use xlink:href="#DejaVuSans-2d" x="254.492188"/>
       <use xlink:href="#DejaVuSans-30" x="290.576172"/>
       <use xlink:href="#DejaVuSans-35" x="354.199219"/>
      </g>
     </g>
    </g>
    <g id="xtick_4">
     <g id="line2d_4">
      <g>
       <use xlink:href="#ma4c2ab2f04" x="453.387042" y="148.32" style="stroke: #000000; stroke-width: 0.8"/>
      </g>
     </g>
     <g id="text_4">
      <!-- 2020-07 -->
      <g transform="translate(428.317355 164.438125) scale(0.12 -0.12)">
       <defs>
        <path id="DejaVuSans-37" d="M 525 4666 
L 3525 4666 
L 3525 4397 
L 1831 0 
L 1172 0 
L 2766 4134 
L 525 4134 
L 525 4666 
z
" transform="scale(0.015625)"/>
       </defs>
       <use xlink:href="#DejaVuSans-32"/>
       <use xlink:href="#DejaVuSans-30" x="63.623047"/>
       <use xlink:href="#DejaVuSans-32" x="127.246094"/>
       <use xlink:href="#DejaVuSans-30" x="190.869141"/>
       <use xlink:href="#DejaVuSans-2d" x="254.492188"/>
       <use xlink:href="#DejaVuSans-30" x="290.576172"/>
       <use xlink:href="#DejaVuSans-37" x="354.199219"/>
      </g>
     </g>
    </g>
    <g id="xtick_5">
     <g id="line2d_5">
      <g>
       <use xlink:href="#ma4c2ab2f04" x="575.893792" y="148.32" style="stroke: #000000; stroke-width: 0.8"/>
      </g>
     </g>
     <g id="text_5">
      <!-- 2020-09 -->
      <g transform="translate(550.824105 164.438125) scale(0.12 -0.12)">
       <defs>
        <path id="DejaVuSans-39" d="M 703 97 
L 703 672 
Q 941 559 1184 500 
Q 1428 441 1663 441 
Q 2288 441 2617 861 
Q 2947 1281 2994 2138 
Q 2813 1869 2534 1725 
Q 2256 1581 1919 1581 
Q 1219 1581 811 2004 
Q 403 2428 403 3163 
Q 403 3881 828 4315 
Q 1253 4750 1959 4750 
Q 2769 4750 3195 4129 
Q 3622 3509 3622 2328 
Q 3622 1225 3098 567 
Q 2575 -91 1691 -91 
Q 1453 -91 1209 -44 
Q 966 3 703 97 
z
M 1959 2075 
Q 2384 2075 2632 2365 
Q 2881 2656 2881 3163 
Q 2881 3666 2632 3958 
Q 2384 4250 1959 4250 
Q 1534 4250 1286 3958 
Q 1038 3666 1038 3163 
Q 1038 2656 1286 2365 
Q 1534 2075 1959 2075 
z
" transform="scale(0.015625)"/>
       </defs>
       <use xlink:href="#DejaVuSans-32"/>
       <use xlink:href="#DejaVuSans-30" x="63.623047"/>
       <use xlink:href="#DejaVuSans-32" x="127.246094"/>
       <use xlink:href="#DejaVuSans-30" x="190.869141"/>
       <use xlink:href="#DejaVuSans-2d" x="254.492188"/>
       <use xlink:href="#DejaVuSans-30" x="290.576172"/>
       <use xlink:href="#DejaVuSans-39" x="354.199219"/>
      </g>
     </g>
    </g>
    <g id="xtick_6">
     <g id="line2d_6">
      <g>
       <use xlink:href="#ma4c2ab2f04" x="696.424626" y="148.32" style="stroke: #000000; stroke-width: 0.8"/>
      </g>
     </g>
     <g id="text_6">
      <!-- 2020-11 -->
      <g transform="translate(671.354939 164.438125) scale(0.12 -0.12)">
       <use xlink:href="#DejaVuSans-32"/>
       <use xlink:href="#DejaVuSans-30" x="63.623047"/>
       <use xlink:href="#DejaVuSans-32" x="127.246094"/>
       <use xlink:href="#DejaVuSans-30" x="190.869141"/>
       <use xlink:href="#DejaVuSans-2d" x="254.492188"/>
       <use xlink:href="#DejaVuSans-31" x="290.576172"/>
       <use xlink:href="#DejaVuSans-31" x="354.199219"/>
      </g>
     </g>
    </g>
    <g id="xtick_7">
     <g id="line2d_7">
      <g>
       <use xlink:href="#ma4c2ab2f04" x="816.955461" y="148.32" style="stroke: #000000; stroke-width: 0.8"/>
      </g>
     </g>
     <g id="text_7">
      <!-- 2021-01 -->
      <g transform="translate(791.885773 164.438125) scale(0.12 -0.12)">
       <use xlink:href="#DejaVuSans-32"/>
       <use xlink:href="#DejaVuSans-30" x="63.623047"/>
       <use xlink:href="#DejaVuSans-32" x="127.246094"/>
       <use xlink:href="#DejaVuSans-31" x="190.869141"/>
       <use xlink:href="#DejaVuSans-2d" x="254.492188"/>
       <use xlink:href="#DejaVuSans-30" x="290.576172"/>
       <use xlink:href="#DejaVuSans-31" x="354.199219"/>
      </g>
     </g>
    </g>
   </g>
   <g id="matplotlib.axis_2">
    <g id="ytick_1">
     <g id="line2d_8">
      <defs>
       <path id="mdbb31100a3" d="M 0 0 
L -3.5 0 
" style="stroke: #000000; stroke-width: 0.8"/>
      </defs>
      <g>
       <use xlink:href="#mdbb31100a3" x="57.71" y="147.207074" style="stroke: #000000; stroke-width: 0.8"/>
      </g>
     </g>
     <g id="text_8">
      <!-- 300 -->
      <g transform="translate(27.805 151.766136) scale(0.12 -0.12)">
       <use xlink:href="#DejaVuSans-33"/>
       <use xlink:href="#DejaVuSans-30" x="63.623047"/>
       <use xlink:href="#DejaVuSans-30" x="127.246094"/>
      </g>
     </g>
    </g>
    <g id="ytick_2">
     <g id="line2d_9">
      <g>
       <use xlink:href="#mdbb31100a3" x="57.71" y="103.312744" style="stroke: #000000; stroke-width: 0.8"/>
      </g>
     </g>
     <g id="text_9">
      <!-- 350 -->
      <g transform="translate(27.805 107.871807) scale(0.12 -0.12)">
       <use xlink:href="#DejaVuSans-33"/>
       <use xlink:href="#DejaVuSans-35" x="63.623047"/>
       <use xlink:href="#DejaVuSans-30" x="127.246094"/>
      </g>
     </g>
    </g>
    <g id="ytick_3">
     <g id="line2d_10">
      <g>
       <use xlink:href="#mdbb31100a3" x="57.71" y="59.418415" style="stroke: #000000; stroke-width: 0.8"/>
      </g>
     </g>
     <g id="text_10">
      <!-- 400 -->
      <g transform="translate(27.805 63.977477) scale(0.12 -0.12)">
       <defs>
        <path id="DejaVuSans-34" d="M 2419 4116 
L 825 1625 
L 2419 1625 
L 2419 4116 
z
M 2253 4666 
L 3047 4666 
L 3047 1625 
L 3713 1625 
L 3713 1100 
L 3047 1100 
L 3047 0 
L 2419 0 
L 2419 1100 
L 313 1100 
L 313 1709 
L 2253 4666 
z
" transform="scale(0.015625)"/>
       </defs>
       <use xlink:href="#DejaVuSans-34"/>
       <use xlink:href="#DejaVuSans-30" x="63.623047"/>
       <use xlink:href="#DejaVuSans-30" x="127.246094"/>
      </g>
     </g>
    </g>
    <g id="text_11">
     <!-- Soil moisture (mm) -->
     <g transform="translate(21.309375 146.524688) rotate(-90) scale(0.12 -0.12)">
      <defs>
       <path id="DejaVuSans-53" d="M 3425 4513 
L 3425 3897 
Q 3066 4069 2747 4153 
Q 2428 4238 2131 4238 
Q 1616 4238 1336 4038 
Q 1056 3838 1056 3469 
Q 1056 3159 1242 3001 
Q 1428 2844 1947 2747 
L 2328 2669 
Q 3034 2534 3370 2195 
Q 3706 1856 3706 1288 
Q 3706 609 3251 259 
Q 2797 -91 1919 -91 
Q 1588 -91 1214 -16 
Q 841 59 441 206 
L 441 856 
Q 825 641 1194 531 
Q 1563 422 1919 422 
Q 2459 422 2753 634 
Q 3047 847 3047 1241 
Q 3047 1584 2836 1778 
Q 2625 1972 2144 2069 
L 1759 2144 
Q 1053 2284 737 2584 
Q 422 2884 422 3419 
Q 422 4038 858 4394 
Q 1294 4750 2059 4750 
Q 2388 4750 2728 4690 
Q 3069 4631 3425 4513 
z
" transform="scale(0.015625)"/>
       <path id="DejaVuSans-6f" d="M 1959 3097 
Q 1497 3097 1228 2736 
Q 959 2375 959 1747 
Q 959 1119 1226 758 
Q 1494 397 1959 397 
Q 2419 397 2687 759 
Q 2956 1122 2956 1747 
Q 2956 2369 2687 2733 
Q 2419 3097 1959 3097 
z
M 1959 3584 
Q 2709 3584 3137 3096 
Q 3566 2609 3566 1747 
Q 3566 888 3137 398 
Q 2709 -91 1959 -91 
Q 1206 -91 779 398 
Q 353 888 353 1747 
Q 353 2609 779 3096 
Q 1206 3584 1959 3584 
z
" transform="scale(0.015625)"/>
       <path id="DejaVuSans-69" d="M 603 3500 
L 1178 3500 
L 1178 0 
L 603 0 
L 603 3500 
z
M 603 4863 
L 1178 4863 
L 1178 4134 
L 603 4134 
L 603 4863 
z
" transform="scale(0.015625)"/>
       <path id="DejaVuSans-6c" d="M 603 4863 
L 1178 4863 
L 1178 0 
L 603 0 
L 603 4863 
z
" transform="scale(0.015625)"/>
       <path id="DejaVuSans-20" transform="scale(0.015625)"/>
       <path id="DejaVuSans-6d" d="M 3328 2828 
Q 3544 3216 3844 3400 
Q 4144 3584 4550 3584 
Q 5097 3584 5394 3201 
Q 5691 2819 5691 2113 
L 5691 0 
L 5113 0 
L 5113 2094 
Q 5113 2597 4934 2840 
Q 4756 3084 4391 3084 
Q 3944 3084 3684 2787 
Q 3425 2491 3425 1978 
L 3425 0 
L 2847 0 
L 2847 2094 
Q 2847 2600 2669 2842 
Q 2491 3084 2119 3084 
Q 1678 3084 1418 2786 
Q 1159 2488 1159 1978 
L 1159 0 
L 581 0 
L 581 3500 
L 1159 3500 
L 1159 2956 
Q 1356 3278 1631 3431 
Q 1906 3584 2284 3584 
Q 2666 3584 2933 3390 
Q 3200 3197 3328 2828 
z
" transform="scale(0.015625)"/>
       <path id="DejaVuSans-73" d="M 2834 3397 
L 2834 2853 
Q 2591 2978 2328 3040 
Q 2066 3103 1784 3103 
Q 1356 3103 1142 2972 
Q 928 2841 928 2578 
Q 928 2378 1081 2264 
Q 1234 2150 1697 2047 
L 1894 2003 
Q 2506 1872 2764 1633 
Q 3022 1394 3022 966 
Q 3022 478 2636 193 
Q 2250 -91 1575 -91 
Q 1294 -91 989 -36 
Q 684 19 347 128 
L 347 722 
Q 666 556 975 473 
Q 1284 391 1588 391 
Q 1994 391 2212 530 
Q 2431 669 2431 922 
Q 2431 1156 2273 1281 
Q 2116 1406 1581 1522 
L 1381 1569 
Q 847 1681 609 1914 
Q 372 2147 372 2553 
Q 372 3047 722 3315 
Q 1072 3584 1716 3584 
Q 2034 3584 2315 3537 
Q 2597 3491 2834 3397 
z
" transform="scale(0.015625)"/>
       <path id="DejaVuSans-74" d="M 1172 4494 
L 1172 3500 
L 2356 3500 
L 2356 3053 
L 1172 3053 
L 1172 1153 
Q 1172 725 1289 603 
Q 1406 481 1766 481 
L 2356 481 
L 2356 0 
L 1766 0 
Q 1100 0 847 248 
Q 594 497 594 1153 
L 594 3053 
L 172 3053 
L 172 3500 
L 594 3500 
L 594 4494 
L 1172 4494 
z
" transform="scale(0.015625)"/>
       <path id="DejaVuSans-75" d="M 544 1381 
L 544 3500 
L 1119 3500 
L 1119 1403 
Q 1119 906 1312 657 
Q 1506 409 1894 409 
Q 2359 409 2629 706 
Q 2900 1003 2900 1516 
L 2900 3500 
L 3475 3500 
L 3475 0 
L 2900 0 
L 2900 538 
Q 2691 219 2414 64 
Q 2138 -91 1772 -91 
Q 1169 -91 856 284 
Q 544 659 544 1381 
z
M 1991 3584 
L 1991 3584 
z
" transform="scale(0.015625)"/>
       <path id="DejaVuSans-72" d="M 2631 2963 
Q 2534 3019 2420 3045 
Q 2306 3072 2169 3072 
Q 1681 3072 1420 2755 
Q 1159 2438 1159 1844 
L 1159 0 
L 581 0 
L 581 3500 
L 1159 3500 
L 1159 2956 
Q 1341 3275 1631 3429 
Q 1922 3584 2338 3584 
Q 2397 3584 2469 3576 
Q 2541 3569 2628 3553 
L 2631 2963 
z
" transform="scale(0.015625)"/>
       <path id="DejaVuSans-65" d="M 3597 1894 
L 3597 1613 
L 953 1613 
Q 991 1019 1311 708 
Q 1631 397 2203 397 
Q 2534 397 2845 478 
Q 3156 559 3463 722 
L 3463 178 
Q 3153 47 2828 -22 
Q 2503 -91 2169 -91 
Q 1331 -91 842 396 
Q 353 884 353 1716 
Q 353 2575 817 3079 
Q 1281 3584 2069 3584 
Q 2775 3584 3186 3129 
Q 3597 2675 3597 1894 
z
M 3022 2063 
Q 3016 2534 2758 2815 
Q 2500 3097 2075 3097 
Q 1594 3097 1305 2825 
Q 1016 2553 972 2059 
L 3022 2063 
z
" transform="scale(0.015625)"/>
       <path id="DejaVuSans-28" d="M 1984 4856 
Q 1566 4138 1362 3434 
Q 1159 2731 1159 2009 
Q 1159 1288 1364 580 
Q 1569 -128 1984 -844 
L 1484 -844 
Q 1016 -109 783 600 
Q 550 1309 550 2009 
Q 550 2706 781 3412 
Q 1013 4119 1484 4856 
L 1984 4856 
z
" transform="scale(0.015625)"/>
       <path id="DejaVuSans-29" d="M 513 4856 
L 1013 4856 
Q 1481 4119 1714 3412 
Q 1947 2706 1947 2009 
Q 1947 1309 1714 600 
Q 1481 -109 1013 -844 
L 513 -844 
Q 928 -128 1133 580 
Q 1338 1288 1338 2009 
Q 1338 2731 1133 3434 
Q 928 4138 513 4856 
z
" transform="scale(0.015625)"/>
      </defs>
      <use xlink:href="#DejaVuSans-53"/>
      <use xlink:href="#DejaVuSans-6f" x="63.476562"/>
      <use xlink:href="#DejaVuSans-69" x="124.658203"/>
      <use xlink:href="#DejaVuSans-6c" x="152.441406"/>
      <use xlink:href="#DejaVuSans-20" x="180.224609"/>
      <use xlink:href="#DejaVuSans-6d" x="212.011719"/>
      <use xlink:href="#DejaVuSans-6f" x="309.423828"/>
      <use xlink:href="#DejaVuSans-69" x="370.605469"/>
      <use xlink:href="#DejaVuSans-73" x="398.388672"/>
      <use xlink:href="#DejaVuSans-74" x="450.488281"/>
      <use xlink:href="#DejaVuSans-75" x="489.697266"/>
      <use xlink:href="#DejaVuSans-72" x="553.076172"/>
      <use xlink:href="#DejaVuSans-65" x="591.939453"/>
      <use xlink:href="#DejaVuSans-20" x="653.462891"/>
      <use xlink:href="#DejaVuSans-28" x="685.25"/>
      <use xlink:href="#DejaVuSans-6d" x="724.263672"/>
      <use xlink:href="#DejaVuSans-6d" x="821.675781"/>
      <use xlink:href="#DejaVuSans-29" x="919.087891"/>
     </g>
    </g>
   </g>
   <g id="line2d_11">
    <path d="M 93.770455 39.857547 
L 95.74637 39.682889 
L 97.722285 40.1451 
L 103.650031 39.626099 
L 105.625946 39.507891 
L 111.553692 39.964181 
L 113.529608 39.647686 
L 119.457354 39.316346 
L 121.433269 39.015983 
L 123.409184 38.509477 
L 135.264676 37.645851 
L 139.216507 37.575345 
L 145.144253 37.917089 
L 147.120168 38.454804 
L 149.096083 38.457938 
L 153.047914 38.811538 
L 155.023829 38.836003 
L 156.999745 39.289446 
L 158.97566 39.562507 
L 168.855237 39.529501 
L 170.831152 39.726697 
L 172.807067 40.256717 
L 174.782983 40.316908 
L 178.734813 40.20262 
L 182.686644 40.43223 
L 188.61439 40.770054 
L 190.590305 41.074332 
L 206.397628 41.923288 
L 210.349458 42.46655 
L 212.325374 42.621138 
L 214.301289 42.96844 
L 218.25312 43.091019 
L 220.229035 43.455798 
L 222.20495 43.201436 
L 224.180866 43.559515 
L 228.132696 44.49828 
L 230.108611 44.089233 
L 232.084527 44.456977 
L 236.036357 44.822156 
L 238.012273 45.253858 
L 241.964103 46.44541 
L 245.915934 47.894197 
L 247.891849 48.154471 
L 249.867765 48.284613 
L 251.84368 48.575659 
L 255.795511 49.656256 
L 259.747341 50.898594 
L 261.723257 51.676485 
L 265.675087 53.601638 
L 267.651002 53.116259 
L 269.626918 52.823305 
L 271.602833 53.317444 
L 273.578748 53.9882 
L 279.506494 56.731263 
L 281.48241 57.959468 
L 285.43424 60.859175 
L 287.410156 62.484666 
L 291.361986 64.840179 
L 293.337902 66.259322 
L 295.313817 68.005727 
L 297.289732 68.94519 
L 299.265648 70.087311 
L 305.193394 74.898085 
L 309.145224 78.134495 
L 313.097055 81.538733 
L 317.048885 85.31157 
L 319.024801 87.270645 
L 321.000716 88.218933 
L 322.976631 89.400035 
L 324.952547 91.237456 
L 326.928462 91.167929 
L 328.904377 88.778355 
L 330.880293 85.215669 
L 332.856208 85.701581 
L 334.832123 83.529032 
L 336.808039 84.192185 
L 338.783954 84.238504 
L 340.759869 85.358795 
L 344.7117 89.280615 
L 348.663531 93.849849 
L 350.639446 95.172007 
L 352.615361 94.489213 
L 354.591276 95.032238 
L 356.567192 94.829609 
L 358.543107 96.464713 
L 364.470853 100.486468 
L 366.446768 102.014623 
L 368.422684 103.010954 
L 372.374514 106.749226 
L 374.35043 102.840103 
L 376.326345 103.146911 
L 378.30226 99.951413 
L 380.278176 100.017815 
L 382.254091 101.435542 
L 384.230006 103.34981 
L 386.205922 105.54697 
L 388.181837 108.118594 
L 392.133667 111.740518 
L 396.085498 117.966393 
L 398.061413 118.716844 
L 400.037329 111.364585 
L 402.013244 108.839358 
L 403.989159 108.733642 
L 405.965075 110.836385 
L 407.94099 112.556558 
L 409.916905 114.683308 
L 411.892821 117.091167 
L 413.868736 112.128482 
L 415.844651 114.279631 
L 417.820567 91.914288 
L 419.796482 86.910363 
L 421.772397 89.373445 
L 423.748313 91.074745 
L 425.724228 93.856593 
L 427.700143 87.503119 
L 429.676059 85.361026 
L 431.651974 87.046461 
L 433.627889 90.369755 
L 435.603804 93.323584 
L 437.57972 96.681003 
L 443.507466 105.867887 
L 445.483381 107.634615 
L 447.459296 109.059045 
L 449.435212 110.953989 
L 451.411127 112.005412 
L 453.387042 105.084393 
L 455.362958 105.613395 
L 457.338873 106.956218 
L 459.314788 103.869176 
L 461.290704 103.799842 
L 463.266619 102.851425 
L 465.242534 103.803716 
L 467.21845 104.097555 
L 469.194365 96.17164 
L 471.17028 95.377731 
L 473.146196 96.667024 
L 475.122111 98.381224 
L 477.098026 100.57228 
L 479.073941 100.533537 
L 481.049857 98.716278 
L 483.025772 100.293589 
L 485.001687 102.784252 
L 488.953518 107.386462 
L 490.929433 105.301353 
L 492.905349 106.95337 
L 494.881264 108.34175 
L 496.857179 111.278187 
L 500.80901 113.316639 
L 502.784925 110.716645 
L 504.760841 111.502088 
L 506.736756 113.472866 
L 508.712671 115.159301 
L 510.688587 117.65456 
L 512.664502 120.619041 
L 514.640417 122.421086 
L 516.616333 116.247033 
L 518.592248 117.749319 
L 520.568163 119.571146 
L 528.471824 130.985061 
L 530.44774 133.084177 
L 532.423655 133.349684 
L 534.39957 136.009246 
L 536.375486 138.310932 
L 538.351401 139.170685 
L 540.327316 138.841107 
L 542.303232 140.80375 
L 544.279147 142.930909 
L 546.255062 140.882449 
L 548.230978 139.770312 
L 550.206893 141.360296 
L 552.182808 142.657988 
L 554.158724 141.097035 
L 556.134639 141.465899 
L 558.110554 142.285657 
L 560.086469 140.48363 
L 562.062385 137.476464 
L 564.0383 129.592756 
L 566.014215 129.953102 
L 567.990131 127.917253 
L 571.941961 129.949588 
L 573.917877 130.141748 
L 575.893792 131.308522 
L 577.869707 131.880674 
L 579.845623 125.124902 
L 583.797453 123.435117 
L 589.725199 125.032713 
L 591.701115 124.832528 
L 593.67703 125.319373 
L 595.652945 126.351433 
L 603.556606 131.269283 
L 609.484352 133.656527 
L 611.460268 134.267816 
L 615.412098 136.109139 
L 619.363929 138.253426 
L 621.339844 136.654128 
L 623.31576 131.478219 
L 625.291675 113.618365 
L 627.26759 112.419802 
L 629.243506 112.870928 
L 633.195336 114.189828 
L 635.171252 114.853759 
L 637.147167 115.22777 
L 639.123082 114.150746 
L 641.098998 114.359338 
L 643.074913 112.839452 
L 645.050828 111.905053 
L 647.026743 110.486927 
L 649.002659 104.157716 
L 650.978574 104.24161 
L 652.954489 103.546605 
L 654.930405 102.58858 
L 656.90632 102.116765 
L 658.882235 102.226498 
L 660.858151 98.26444 
L 662.834066 97.885742 
L 664.809981 98.123431 
L 666.785897 97.929997 
L 668.761812 97.252539 
L 670.737727 97.140574 
L 672.713643 93.935996 
L 674.689558 91.603736 
L 676.665473 91.210387 
L 678.641389 88.791455 
L 680.617304 88.693793 
L 682.593219 87.940944 
L 684.569134 84.610382 
L 686.54505 84.239634 
L 688.520965 83.260604 
L 690.49688 81.039379 
L 692.472796 75.451754 
L 694.448711 75.380236 
L 696.424626 74.439772 
L 698.400542 72.263576 
L 702.352372 71.877006 
L 706.304203 71.931833 
L 712.231949 71.649901 
L 714.207864 71.689359 
L 716.18378 71.5544 
L 718.159695 71.302425 
L 720.13561 71.194238 
L 722.111526 70.754579 
L 724.087441 69.313556 
L 726.063356 68.523987 
L 728.039271 67.553112 
L 730.015187 67.286919 
L 733.967017 65.993729 
L 735.942933 65.696567 
L 739.894763 64.762142 
L 745.822509 63.962276 
L 751.750255 63.692969 
L 753.726171 63.054006 
L 755.702086 62.682683 
L 757.678001 62.562928 
L 761.629832 62.003366 
L 763.605747 61.452987 
L 765.581663 61.029534 
L 769.533493 60.598477 
L 771.509408 59.874709 
L 777.437154 59.148124 
L 779.41307 59.061167 
L 781.388985 58.325796 
L 783.3649 57.438758 
L 785.340816 57.332203 
L 787.316731 56.634364 
L 791.268562 55.943879 
L 793.244477 54.701102 
L 795.220392 53.663182 
L 799.172223 49.498192 
L 801.148138 48.521662 
L 803.124054 48.263704 
L 805.099969 48.130037 
L 807.075884 47.800494 
L 809.0518 47.133789 
L 811.027715 46.90983 
L 814.979545 46.660265 
L 814.979545 46.660265 
" clip-path="url(#p0e89ec02e3)" style="fill: none; stroke: #1f77b4; stroke-width: 1.5; stroke-linecap: square"/>
   </g>
   <g id="line2d_12">
    <path d="M 93.770455 37.878656 
L 95.74637 37.703811 
L 97.722285 37.929057 
L 101.674116 37.702309 
L 105.625946 37.395195 
L 107.601862 37.473237 
L 109.577777 37.779971 
L 111.553692 37.782513 
L 113.529608 37.46436 
L 117.481438 37.186514 
L 119.457354 37.026705 
L 121.433269 36.713818 
L 123.409184 36.206672 
L 129.33693 35.640918 
L 133.288761 35.265287 
L 143.168337 35.149091 
L 145.144253 35.45931 
L 147.120168 36.819623 
L 149.096083 36.715887 
L 153.047914 36.948203 
L 155.023829 36.919927 
L 156.999745 38.029334 
L 158.97566 38.409438 
L 164.903406 38.232035 
L 168.855237 38.272114 
L 170.831152 38.640435 
L 172.807067 40.020548 
L 182.686644 40.114616 
L 184.662559 40.272145 
L 186.638474 40.232774 
L 188.61439 40.424124 
L 190.590305 40.756843 
L 194.542136 41.020569 
L 196.518051 41.078362 
L 198.493966 41.431207 
L 202.445797 41.825836 
L 204.421712 41.832364 
L 206.397628 41.975698 
L 210.349458 42.496225 
L 212.325374 42.675179 
L 214.301289 43.041289 
L 218.25312 43.201633 
L 220.229035 43.582659 
L 222.20495 43.067961 
L 224.180866 43.440459 
L 228.132696 44.461413 
L 230.108611 43.834532 
L 232.084527 44.28106 
L 234.060442 44.377007 
L 236.036357 44.662396 
L 238.012273 45.094364 
L 241.964103 46.28628 
L 243.940019 47.096789 
L 245.915934 47.765719 
L 251.84368 48.543206 
L 255.795511 49.623823 
L 259.747341 50.866183 
L 261.723257 51.644089 
L 265.675087 53.57281 
L 269.626918 53.436968 
L 271.602833 53.93592 
L 273.578748 54.6233 
L 281.48241 58.767699 
L 285.43424 61.666073 
L 287.410156 63.290814 
L 291.361986 65.64909 
L 293.337902 67.067568 
L 295.313817 68.817211 
L 297.289732 70.108656 
L 299.265648 71.253342 
L 305.193394 76.060805 
L 309.145224 79.294965 
L 313.097055 82.696818 
L 317.048885 86.46699 
L 319.024801 88.425797 
L 321.000716 89.483485 
L 322.976631 90.668756 
L 324.952547 92.505422 
L 326.928462 93.742218 
L 328.904377 90.641261 
L 330.880293 84.931515 
L 332.856208 86.559934 
L 334.832123 83.616938 
L 338.783954 85.771321 
L 340.759869 87.254034 
L 344.7117 91.178677 
L 348.663531 95.742698 
L 350.639446 97.383028 
L 352.615361 98.088778 
L 354.591276 99.350014 
L 356.567192 100.359797 
L 358.543107 102.149394 
L 368.422684 109.098932 
L 372.374514 112.822887 
L 374.35043 106.653277 
L 376.326345 107.934078 
L 378.30226 103.039475 
L 380.278176 103.872403 
L 382.254091 105.357528 
L 384.230006 107.328138 
L 386.205922 109.519578 
L 388.181837 112.084468 
L 392.133667 115.738267 
L 396.085498 121.947324 
L 398.061413 124.323543 
L 400.037329 111.564271 
L 402.013244 107.632154 
L 403.989159 108.711923 
L 409.916905 115.864941 
L 411.892821 118.296675 
L 413.868736 111.302568 
L 415.844651 113.701847 
L 417.820567 70.027266 
L 419.796482 64.819947 
L 421.772397 67.398844 
L 423.748313 69.54005 
L 425.724228 72.379111 
L 427.700143 64.879038 
L 429.676059 63.556723 
L 431.651974 65.52707 
L 433.627889 68.893443 
L 435.603804 71.894049 
L 437.57972 75.295647 
L 443.507466 84.823461 
L 445.483381 88.114357 
L 447.459296 89.973314 
L 449.435212 92.444718 
L 451.411127 93.630024 
L 453.387042 84.044128 
L 457.338873 88.480526 
L 459.314788 85.417688 
L 461.290704 86.594405 
L 463.266619 86.340857 
L 465.242534 88.062596 
L 467.21845 89.152067 
L 469.194365 78.047848 
L 471.17028 78.411277 
L 475.122111 81.966187 
L 477.098026 84.17997 
L 479.073941 85.325712 
L 481.049857 84.238937 
L 483.025772 86.053714 
L 485.001687 88.56683 
L 488.953518 93.226816 
L 490.929433 91.380739 
L 494.881264 94.908899 
L 496.857179 97.895445 
L 500.80901 102.205063 
L 502.784925 99.216802 
L 504.760841 100.842777 
L 506.736756 103.172544 
L 508.712671 104.941906 
L 510.688587 107.454192 
L 512.664502 110.439038 
L 514.640417 112.98974 
L 516.616333 103.28338 
L 520.568163 107.00134 
L 526.495909 115.650702 
L 528.471824 118.523586 
L 530.44774 120.883778 
L 532.423655 122.961461 
L 534.39957 125.682691 
L 536.375486 128.027974 
L 538.351401 130.059293 
L 540.327316 131.154689 
L 544.279147 135.569952 
L 546.255062 133.750457 
L 548.230978 133.839799 
L 550.206893 135.645745 
L 552.182808 137.282474 
L 554.158724 136.74074 
L 558.110554 139.601862 
L 560.086469 139.215517 
L 562.062385 136.122505 
L 564.0383 124.085415 
L 566.014215 125.014948 
L 567.990131 123.505305 
L 571.941961 126.042075 
L 573.917877 127.009677 
L 575.893792 128.292118 
L 577.869707 129.136052 
L 579.845623 118.589932 
L 581.821538 119.445886 
L 583.797453 119.74918 
L 587.749284 121.417305 
L 589.725199 122.006517 
L 591.701115 122.813283 
L 593.67703 123.473847 
L 595.652945 124.509156 
L 603.556606 129.43468 
L 609.484352 131.864259 
L 611.460268 132.476338 
L 615.412098 134.320045 
L 619.363929 136.467125 
L 621.339844 136.325324 
L 623.31576 129.336536 
L 625.291675 97.610435 
L 627.26759 97.797713 
L 629.243506 98.412224 
L 633.195336 99.88326 
L 635.171252 100.620995 
L 637.147167 101.07226 
L 639.123082 101.75388 
L 643.074913 102.163281 
L 645.050828 102.294195 
L 647.026743 102.607944 
L 649.002659 93.906217 
L 652.954489 94.548426 
L 656.90632 95.259792 
L 658.882235 95.533955 
L 660.858151 91.095434 
L 662.834066 91.245655 
L 664.809981 91.542232 
L 666.785897 91.651285 
L 668.761812 91.571814 
L 670.737727 91.661637 
L 672.713643 88.348753 
L 674.689558 86.911895 
L 676.665473 87.093529 
L 678.641389 85.281319 
L 680.617304 85.51642 
L 682.593219 85.623455 
L 684.569134 82.130883 
L 686.54505 82.015492 
L 688.520965 82.086991 
L 690.49688 80.197477 
L 692.472796 71.643739 
L 696.424626 71.90422 
L 698.400542 69.727691 
L 702.352372 69.343047 
L 708.280118 69.341393 
L 714.207864 69.225328 
L 716.18378 69.295455 
L 718.159695 69.203741 
L 720.13561 69.318568 
L 722.111526 69.174842 
L 724.087441 68.524519 
L 730.015187 68.126166 
L 735.942933 67.245991 
L 737.918848 67.112209 
L 741.870679 66.483439 
L 743.846594 66.205554 
L 757.678001 65.89042 
L 763.605747 65.368402 
L 767.557578 65.32801 
L 769.533493 65.126192 
L 779.41307 64.94217 
L 781.388985 64.747192 
L 783.3649 64.224136 
L 785.340816 64.143961 
L 791.268562 63.116864 
L 793.244477 61.484486 
L 795.220392 60.450965 
L 799.172223 51.236792 
L 801.148138 49.739354 
L 803.124054 49.496883 
L 807.075884 49.255913 
L 809.0518 48.38982 
L 814.979545 48.092248 
L 814.979545 48.092248 
" clip-path="url(#p0e89ec02e3)" style="fill: none; stroke: #ff7f0e; stroke-width: 1.5; stroke-linecap: square"/>
   </g>
   <g id="line2d_13">
    <path d="M 93.770455 40.978442 
L 95.74637 40.803889 
L 97.722285 40.976868 
L 99.6982 40.693676 
L 105.625946 40.311826 
L 111.553692 40.600774 
L 113.529608 40.308397 
L 117.481438 40.109952 
L 119.457354 40.006071 
L 121.433269 39.734896 
L 123.409184 39.270885 
L 133.288761 38.644468 
L 137.240592 38.723937 
L 139.216507 38.694012 
L 153.047914 39.505227 
L 155.023829 39.462511 
L 158.97566 39.85009 
L 166.879321 39.91644 
L 170.831152 40.048602 
L 172.807067 40.289114 
L 174.782983 40.33736 
L 178.734813 40.188177 
L 182.686644 40.462188 
L 186.638474 40.497099 
L 190.590305 41.023048 
L 200.469882 41.392201 
L 202.445797 41.617283 
L 204.421712 41.634977 
L 206.397628 41.784654 
L 214.301289 42.88391 
L 218.25312 43.016214 
L 220.229035 43.36734 
L 222.20495 43.274022 
L 224.180866 43.611698 
L 228.132696 44.514848 
L 230.108611 44.286255 
L 234.060442 44.942199 
L 236.036357 45.129236 
L 239.988188 45.977654 
L 241.964103 46.544907 
L 243.940019 47.252393 
L 245.915934 47.821256 
L 251.84368 48.215678 
L 255.795511 49.056169 
L 259.747341 50.028455 
L 261.723257 50.659235 
L 265.675087 52.258694 
L 267.651002 51.922885 
L 269.626918 51.807147 
L 271.602833 52.127633 
L 273.578748 52.626286 
L 281.48241 55.868209 
L 285.43424 58.275023 
L 287.410156 59.628441 
L 291.361986 61.39156 
L 293.337902 62.496205 
L 295.313817 63.916828 
L 299.265648 65.494211 
L 305.193394 69.165811 
L 309.145224 71.572967 
L 313.097055 74.098274 
L 317.048885 76.941407 
L 319.024801 78.416156 
L 321.000716 78.923382 
L 322.976631 79.600382 
L 324.952547 80.929284 
L 326.928462 81.242298 
L 328.904377 80.297726 
L 330.880293 78.903171 
L 332.856208 79.508065 
L 334.832123 78.695175 
L 336.808039 79.097179 
L 338.783954 79.16393 
L 340.759869 79.96917 
L 344.7117 82.849034 
L 348.663531 86.325779 
L 350.639446 87.252281 
L 352.615361 86.744379 
L 354.591276 87.105121 
L 356.567192 87.30137 
L 358.543107 88.44711 
L 364.470853 90.781584 
L 366.446768 91.732393 
L 368.422684 92.240805 
L 370.398599 93.575646 
L 372.374514 94.754 
L 374.35043 93.133548 
L 376.326345 93.351794 
L 378.30226 92.108378 
L 380.278176 91.971377 
L 382.254091 92.815493 
L 384.230006 94.148379 
L 386.205922 95.724091 
L 388.181837 97.66726 
L 392.133667 100.016282 
L 396.085498 104.935678 
L 398.061413 105.888125 
L 400.037329 102.487976 
L 402.013244 101.865644 
L 403.989159 102.255528 
L 405.965075 103.808633 
L 407.94099 105.213753 
L 409.916905 106.792827 
L 411.892821 108.518991 
L 413.868736 105.757625 
L 415.844651 107.344647 
L 417.820567 97.3042 
L 419.796482 94.497546 
L 421.772397 96.348936 
L 423.748313 97.581581 
L 425.724228 99.704849 
L 427.700143 96.377544 
L 429.676059 95.323796 
L 431.651974 96.468179 
L 433.627889 99.122314 
L 435.603804 101.397482 
L 437.57972 104.058423 
L 443.507466 111.189181 
L 445.483381 112.928597 
L 447.459296 113.808379 
L 449.435212 115.219977 
L 451.411127 115.57986 
L 453.387042 111.746989 
L 455.362958 112.299911 
L 457.338873 113.330238 
L 459.314788 111.48408 
L 463.266619 111.028171 
L 465.242534 111.596308 
L 467.21845 111.524319 
L 469.194365 106.790144 
L 471.17028 106.289471 
L 473.146196 107.053457 
L 475.122111 108.086418 
L 477.098026 109.549265 
L 479.073941 109.824347 
L 481.049857 108.607605 
L 483.025772 109.557971 
L 485.001687 111.312039 
L 486.977603 112.798902 
L 488.953518 114.43095 
L 490.929433 113.305497 
L 492.905349 114.286901 
L 494.881264 115.063825 
L 496.857179 117.25269 
L 500.80901 118.841889 
L 502.784925 117.544837 
L 504.760841 117.964662 
L 506.736756 119.332874 
L 508.712671 120.283933 
L 510.688587 122.004244 
L 512.664502 124.187474 
L 514.640417 125.563051 
L 516.616333 122.432896 
L 518.592248 123.284477 
L 520.568163 124.367213 
L 526.495909 130.558413 
L 528.471824 132.597062 
L 530.44774 134.007984 
L 532.423655 134.478086 
L 534.39957 136.346155 
L 536.375486 137.845657 
L 538.351401 138.466766 
L 540.327316 138.028196 
L 544.279147 140.632175 
L 546.255062 139.663257 
L 548.230978 139.107285 
L 550.206893 139.9811 
L 552.182808 140.623863 
L 554.158724 139.717077 
L 556.134639 139.800073 
L 558.110554 140.098849 
L 560.086469 138.738322 
L 562.062385 136.922743 
L 564.0383 132.265356 
L 566.014215 132.099841 
L 567.990131 130.899483 
L 571.941961 131.571128 
L 573.917877 131.344026 
L 575.893792 131.764195 
L 577.869707 131.668003 
L 579.845623 127.965635 
L 581.821538 127.297265 
L 583.797453 126.237493 
L 587.749284 126.055349 
L 589.725199 125.79694 
L 591.701115 125.312263 
L 593.67703 125.101566 
L 595.652945 125.351882 
L 603.556606 127.13512 
L 609.484352 127.182594 
L 611.460268 127.007256 
L 615.412098 127.280605 
L 619.363929 127.85875 
L 621.339844 126.728393 
L 623.31576 123.703633 
L 625.291675 114.284583 
L 627.26759 113.032591 
L 629.243506 112.824669 
L 631.219421 112.840139 
L 635.171252 112.702788 
L 637.147167 112.378578 
L 639.123082 111.458862 
L 641.098998 110.961084 
L 643.074913 109.565826 
L 645.050828 108.453067 
L 647.026743 107.203292 
L 649.002659 103.388542 
L 650.978574 102.879805 
L 656.90632 100.323359 
L 658.882235 99.843214 
L 660.858151 97.247334 
L 662.834066 96.480882 
L 664.809981 96.098388 
L 666.785897 95.411798 
L 668.761812 94.397809 
L 670.737727 93.753453 
L 672.713643 91.680421 
L 674.689558 89.850694 
L 676.665473 89.146341 
L 678.641389 87.354533 
L 680.617304 86.840802 
L 682.593219 85.946741 
L 684.569134 83.609972 
L 686.54505 82.813603 
L 688.520965 81.822662 
L 690.49688 80.247006 
L 692.472796 76.976698 
L 694.448711 76.480809 
L 696.424626 75.599652 
L 698.400542 74.09564 
L 702.352372 72.784247 
L 708.280118 71.407779 
L 714.207864 69.988593 
L 716.18378 69.538067 
L 718.159695 68.952834 
L 720.13561 68.55217 
L 722.111526 67.864245 
L 724.087441 66.707663 
L 728.039271 65.018646 
L 730.015187 64.432724 
L 733.967017 62.775482 
L 737.918848 61.582464 
L 739.894763 60.848389 
L 743.846594 59.68944 
L 745.822509 59.269334 
L 749.77434 58.667786 
L 751.750255 58.262902 
L 753.726171 57.702582 
L 761.629832 55.939152 
L 763.605747 55.408763 
L 769.533493 54.260524 
L 771.509408 53.76629 
L 779.41307 52.588602 
L 783.3649 51.514348 
L 785.340816 51.25315 
L 787.316731 50.621 
L 791.268562 49.629215 
L 795.220392 48.418405 
L 799.172223 46.894585 
L 801.148138 46.438731 
L 803.124054 46.104942 
L 807.075884 45.634423 
L 809.0518 45.284555 
L 814.979545 44.744649 
L 814.979545 44.744649 
" clip-path="url(#p0e89ec02e3)" style="fill: none; stroke: #2ca02c; stroke-width: 1.5; stroke-linecap: square"/>
   </g>
   <g id="patch_3">
    <path d="M 57.71 148.32 
L 57.71 29.76 
" style="fill: none; stroke: #000000; stroke-width: 0.8; stroke-linejoin: miter; stroke-linecap: square"/>
   </g>
   <g id="patch_4">
    <path d="M 851.04 148.32 
L 851.04 29.76 
" style="fill: none; stroke: #000000; stroke-width: 0.8; stroke-linejoin: miter; stroke-linecap: square"/>
   </g>
   <g id="patch_5">
    <path d="M 57.71 148.32 
L 851.04 148.32 
" style="fill: none; stroke: #000000; stroke-width: 0.8; stroke-linejoin: miter; stroke-linecap: square"/>
   </g>
   <g id="patch_6">
    <path d="M 57.71 29.76 
L 851.04 29.76 
" style="fill: none; stroke: #000000; stroke-width: 0.8; stroke-linejoin: miter; stroke-linecap: square"/>
   </g>
   <g id="text_12">
    <!-- Non-drought year 2020 -->
    <g transform="translate(370.16425 23.76) scale(0.144 -0.144)">
     <defs>
      <path id="DejaVuSans-4e" d="M 628 4666 
L 1478 4666 
L 3547 763 
L 3547 4666 
L 4159 4666 
L 4159 0 
L 3309 0 
L 1241 3903 
L 1241 0 
L 628 0 
L 628 4666 
z
" transform="scale(0.015625)"/>
      <path id="DejaVuSans-6e" d="M 3513 2113 
L 3513 0 
L 2938 0 
L 2938 2094 
Q 2938 2591 2744 2837 
Q 2550 3084 2163 3084 
Q 1697 3084 1428 2787 
Q 1159 2491 1159 1978 
L 1159 0 
L 581 0 
L 581 3500 
L 1159 3500 
L 1159 2956 
Q 1366 3272 1645 3428 
Q 1925 3584 2291 3584 
Q 2894 3584 3203 3211 
Q 3513 2838 3513 2113 
z
" transform="scale(0.015625)"/>
      <path id="DejaVuSans-64" d="M 2906 2969 
L 2906 4863 
L 3481 4863 
L 3481 0 
L 2906 0 
L 2906 525 
Q 2725 213 2448 61 
Q 2172 -91 1784 -91 
Q 1150 -91 751 415 
Q 353 922 353 1747 
Q 353 2572 751 3078 
Q 1150 3584 1784 3584 
Q 2172 3584 2448 3432 
Q 2725 3281 2906 2969 
z
M 947 1747 
Q 947 1113 1208 752 
Q 1469 391 1925 391 
Q 2381 391 2643 752 
Q 2906 1113 2906 1747 
Q 2906 2381 2643 2742 
Q 2381 3103 1925 3103 
Q 1469 3103 1208 2742 
Q 947 2381 947 1747 
z
" transform="scale(0.015625)"/>
      <path id="DejaVuSans-67" d="M 2906 1791 
Q 2906 2416 2648 2759 
Q 2391 3103 1925 3103 
Q 1463 3103 1205 2759 
Q 947 2416 947 1791 
Q 947 1169 1205 825 
Q 1463 481 1925 481 
Q 2391 481 2648 825 
Q 2906 1169 2906 1791 
z
M 3481 434 
Q 3481 -459 3084 -895 
Q 2688 -1331 1869 -1331 
Q 1566 -1331 1297 -1286 
Q 1028 -1241 775 -1147 
L 775 -588 
Q 1028 -725 1275 -790 
Q 1522 -856 1778 -856 
Q 2344 -856 2625 -561 
Q 2906 -266 2906 331 
L 2906 616 
Q 2728 306 2450 153 
Q 2172 0 1784 0 
Q 1141 0 747 490 
Q 353 981 353 1791 
Q 353 2603 747 3093 
Q 1141 3584 1784 3584 
Q 2172 3584 2450 3431 
Q 2728 3278 2906 2969 
L 2906 3500 
L 3481 3500 
L 3481 434 
z
" transform="scale(0.015625)"/>
      <path id="DejaVuSans-68" d="M 3513 2113 
L 3513 0 
L 2938 0 
L 2938 2094 
Q 2938 2591 2744 2837 
Q 2550 3084 2163 3084 
Q 1697 3084 1428 2787 
Q 1159 2491 1159 1978 
L 1159 0 
L 581 0 
L 581 4863 
L 1159 4863 
L 1159 2956 
Q 1366 3272 1645 3428 
Q 1925 3584 2291 3584 
Q 2894 3584 3203 3211 
Q 3513 2838 3513 2113 
z
" transform="scale(0.015625)"/>
      <path id="DejaVuSans-79" d="M 2059 -325 
Q 1816 -950 1584 -1140 
Q 1353 -1331 966 -1331 
L 506 -1331 
L 506 -850 
L 844 -850 
Q 1081 -850 1212 -737 
Q 1344 -625 1503 -206 
L 1606 56 
L 191 3500 
L 800 3500 
L 1894 763 
L 2988 3500 
L 3597 3500 
L 2059 -325 
z
" transform="scale(0.015625)"/>
      <path id="DejaVuSans-61" d="M 2194 1759 
Q 1497 1759 1228 1600 
Q 959 1441 959 1056 
Q 959 750 1161 570 
Q 1363 391 1709 391 
Q 2188 391 2477 730 
Q 2766 1069 2766 1631 
L 2766 1759 
L 2194 1759 
z
M 3341 1997 
L 3341 0 
L 2766 0 
L 2766 531 
Q 2569 213 2275 61 
Q 1981 -91 1556 -91 
Q 1019 -91 701 211 
Q 384 513 384 1019 
Q 384 1609 779 1909 
Q 1175 2209 1959 2209 
L 2766 2209 
L 2766 2266 
Q 2766 2663 2505 2880 
Q 2244 3097 1772 3097 
Q 1472 3097 1187 3025 
Q 903 2953 641 2809 
L 641 3341 
Q 956 3463 1253 3523 
Q 1550 3584 1831 3584 
Q 2591 3584 2966 3190 
Q 3341 2797 3341 1997 
z
" transform="scale(0.015625)"/>
     </defs>
     <use xlink:href="#DejaVuSans-4e"/>
     <use xlink:href="#DejaVuSans-6f" x="74.804688"/>
     <use xlink:href="#DejaVuSans-6e" x="135.986328"/>
     <use xlink:href="#DejaVuSans-2d" x="199.365234"/>
     <use xlink:href="#DejaVuSans-64" x="235.449219"/>
     <use xlink:href="#DejaVuSans-72" x="298.925781"/>
     <use xlink:href="#DejaVuSans-6f" x="337.789062"/>
     <use xlink:href="#DejaVuSans-75" x="398.970703"/>
     <use xlink:href="#DejaVuSans-67" x="462.349609"/>
     <use xlink:href="#DejaVuSans-68" x="525.826172"/>
     <use xlink:href="#DejaVuSans-74" x="589.205078"/>
     <use xlink:href="#DejaVuSans-20" x="628.414062"/>
     <use xlink:href="#DejaVuSans-79" x="660.201172"/>
     <use xlink:href="#DejaVuSans-65" x="719.380859"/>
     <use xlink:href="#DejaVuSans-61" x="780.904297"/>
     <use xlink:href="#DejaVuSans-72" x="842.183594"/>
     <use xlink:href="#DejaVuSans-20" x="883.296875"/>
     <use xlink:href="#DejaVuSans-32" x="915.083984"/>
     <use xlink:href="#DejaVuSans-30" x="978.707031"/>
     <use xlink:href="#DejaVuSans-32" x="1042.330078"/>
     <use xlink:href="#DejaVuSans-30" x="1105.953125"/>
    </g>
   </g>
  </g>
  <g id="axes_2">
   <g id="patch_7">
    <path d="M 57.71 314.44 
L 851.04 314.44 
L 851.04 195.88 
L 57.71 195.88 
L 57.71 314.44 
z
" style="fill: none"/>
   </g>
   <g id="matplotlib.axis_3">
    <g id="xtick_8">
     <g id="line2d_14">
      <g>
       <use xlink:href="#ma4c2ab2f04" x="93.770455" y="314.44" style="stroke: #000000; stroke-width: 0.8"/>
      </g>
     </g>
     <g id="text_13">
      <!-- 2018-01 -->
      <g transform="translate(68.700767 330.558125) scale(0.12 -0.12)">
       <defs>
        <path id="DejaVuSans-38" d="M 2034 2216 
Q 1584 2216 1326 1975 
Q 1069 1734 1069 1313 
Q 1069 891 1326 650 
Q 1584 409 2034 409 
Q 2484 409 2743 651 
Q 3003 894 3003 1313 
Q 3003 1734 2745 1975 
Q 2488 2216 2034 2216 
z
M 1403 2484 
Q 997 2584 770 2862 
Q 544 3141 544 3541 
Q 544 4100 942 4425 
Q 1341 4750 2034 4750 
Q 2731 4750 3128 4425 
Q 3525 4100 3525 3541 
Q 3525 3141 3298 2862 
Q 3072 2584 2669 2484 
Q 3125 2378 3379 2068 
Q 3634 1759 3634 1313 
Q 3634 634 3220 271 
Q 2806 -91 2034 -91 
Q 1263 -91 848 271 
Q 434 634 434 1313 
Q 434 1759 690 2068 
Q 947 2378 1403 2484 
z
M 1172 3481 
Q 1172 3119 1398 2916 
Q 1625 2713 2034 2713 
Q 2441 2713 2670 2916 
Q 2900 3119 2900 3481 
Q 2900 3844 2670 4047 
Q 2441 4250 2034 4250 
Q 1625 4250 1398 4047 
Q 1172 3844 1172 3481 
z
" transform="scale(0.015625)"/>
       </defs>
       <use xlink:href="#DejaVuSans-32"/>
       <use xlink:href="#DejaVuSans-30" x="63.623047"/>
       <use xlink:href="#DejaVuSans-31" x="127.246094"/>
       <use xlink:href="#DejaVuSans-38" x="190.869141"/>
       <use xlink:href="#DejaVuSans-2d" x="254.492188"/>
       <use xlink:href="#DejaVuSans-30" x="290.576172"/>
       <use xlink:href="#DejaVuSans-31" x="354.199219"/>
      </g>
     </g>
    </g>
    <g id="xtick_9">
     <g id="line2d_15">
      <g>
       <use xlink:href="#ma4c2ab2f04" x="210.66973" y="314.44" style="stroke: #000000; stroke-width: 0.8"/>
      </g>
     </g>
     <g id="text_14">
      <!-- 2018-03 -->
      <g transform="translate(185.600043 330.558125) scale(0.12 -0.12)">
       <use xlink:href="#DejaVuSans-32"/>
       <use xlink:href="#DejaVuSans-30" x="63.623047"/>
       <use xlink:href="#DejaVuSans-31" x="127.246094"/>
       <use xlink:href="#DejaVuSans-38" x="190.869141"/>
       <use xlink:href="#DejaVuSans-2d" x="254.492188"/>
       <use xlink:href="#DejaVuSans-30" x="290.576172"/>
       <use xlink:href="#DejaVuSans-33" x="354.199219"/>
      </g>
     </g>
    </g>
    <g id="xtick_10">
     <g id="line2d_16">
      <g>
       <use xlink:href="#ma4c2ab2f04" x="331.531693" y="314.44" style="stroke: #000000; stroke-width: 0.8"/>
      </g>
     </g>
     <g id="text_15">
      <!-- 2018-05 -->
      <g transform="translate(306.462006 330.558125) scale(0.12 -0.12)">
       <use xlink:href="#DejaVuSans-32"/>
       <use xlink:href="#DejaVuSans-30" x="63.623047"/>
       <use xlink:href="#DejaVuSans-31" x="127.246094"/>
       <use xlink:href="#DejaVuSans-38" x="190.869141"/>
       <use xlink:href="#DejaVuSans-2d" x="254.492188"/>
       <use xlink:href="#DejaVuSans-30" x="290.576172"/>
       <use xlink:href="#DejaVuSans-35" x="354.199219"/>
      </g>
     </g>
    </g>
    <g id="xtick_11">
     <g id="line2d_17">
      <g>
       <use xlink:href="#ma4c2ab2f04" x="452.393656" y="314.44" style="stroke: #000000; stroke-width: 0.8"/>
      </g>
     </g>
     <g id="text_16">
      <!-- 2018-07 -->
      <g transform="translate(427.323969 330.558125) scale(0.12 -0.12)">
       <use xlink:href="#DejaVuSans-32"/>
       <use xlink:href="#DejaVuSans-30" x="63.623047"/>
       <use xlink:href="#DejaVuSans-31" x="127.246094"/>
       <use xlink:href="#DejaVuSans-38" x="190.869141"/>
       <use xlink:href="#DejaVuSans-2d" x="254.492188"/>
       <use xlink:href="#DejaVuSans-30" x="290.576172"/>
       <use xlink:href="#DejaVuSans-37" x="354.199219"/>
      </g>
     </g>
    </g>
    <g id="xtick_12">
     <g id="line2d_18">
      <g>
       <use xlink:href="#ma4c2ab2f04" x="575.236963" y="314.44" style="stroke: #000000; stroke-width: 0.8"/>
      </g>
     </g>
     <g id="text_17">
      <!-- 2018-09 -->
      <g transform="translate(550.167276 330.558125) scale(0.12 -0.12)">
       <use xlink:href="#DejaVuSans-32"/>
       <use xlink:href="#DejaVuSans-30" x="63.623047"/>
       <use xlink:href="#DejaVuSans-31" x="127.246094"/>
       <use xlink:href="#DejaVuSans-38" x="190.869141"/>
       <use xlink:href="#DejaVuSans-2d" x="254.492188"/>
       <use xlink:href="#DejaVuSans-30" x="290.576172"/>
       <use xlink:href="#DejaVuSans-39" x="354.199219"/>
      </g>
     </g>
    </g>
    <g id="xtick_13">
     <g id="line2d_19">
      <g>
       <use xlink:href="#ma4c2ab2f04" x="696.098926" y="314.44" style="stroke: #000000; stroke-width: 0.8"/>
      </g>
     </g>
     <g id="text_18">
      <!-- 2018-11 -->
      <g transform="translate(671.029239 330.558125) scale(0.12 -0.12)">
       <use xlink:href="#DejaVuSans-32"/>
       <use xlink:href="#DejaVuSans-30" x="63.623047"/>
       <use xlink:href="#DejaVuSans-31" x="127.246094"/>
       <use xlink:href="#DejaVuSans-38" x="190.869141"/>
       <use xlink:href="#DejaVuSans-2d" x="254.492188"/>
       <use xlink:href="#DejaVuSans-31" x="290.576172"/>
       <use xlink:href="#DejaVuSans-31" x="354.199219"/>
      </g>
     </g>
    </g>
    <g id="xtick_14">
     <g id="line2d_20">
      <g>
       <use xlink:href="#ma4c2ab2f04" x="816.960889" y="314.44" style="stroke: #000000; stroke-width: 0.8"/>
      </g>
     </g>
     <g id="text_19">
      <!-- 2019-01 -->
      <g transform="translate(791.891202 330.558125) scale(0.12 -0.12)">
       <use xlink:href="#DejaVuSans-32"/>
       <use xlink:href="#DejaVuSans-30" x="63.623047"/>
       <use xlink:href="#DejaVuSans-31" x="127.246094"/>
       <use xlink:href="#DejaVuSans-39" x="190.869141"/>
       <use xlink:href="#DejaVuSans-2d" x="254.492188"/>
       <use xlink:href="#DejaVuSans-30" x="290.576172"/>
       <use xlink:href="#DejaVuSans-31" x="354.199219"/>
      </g>
     </g>
    </g>
    <g id="text_20">
     <!-- Time -->
     <g transform="translate(439.694687 346.171875) scale(0.12 -0.12)">
      <defs>
       <path id="DejaVuSans-54" d="M -19 4666 
L 3928 4666 
L 3928 4134 
L 2272 4134 
L 2272 0 
L 1638 0 
L 1638 4134 
L -19 4134 
L -19 4666 
z
" transform="scale(0.015625)"/>
      </defs>
      <use xlink:href="#DejaVuSans-54"/>
      <use xlink:href="#DejaVuSans-69" x="57.958984"/>
      <use xlink:href="#DejaVuSans-6d" x="85.742188"/>
      <use xlink:href="#DejaVuSans-65" x="183.154297"/>
     </g>
    </g>
   </g>
   <g id="matplotlib.axis_4">
    <g id="ytick_4">
     <g id="line2d_21">
      <g>
       <use xlink:href="#mdbb31100a3" x="57.71" y="281.400085" style="stroke: #000000; stroke-width: 0.8"/>
      </g>
     </g>
     <g id="text_21">
      <!-- 200 -->
      <g transform="translate(27.805 285.959148) scale(0.12 -0.12)">
       <use xlink:href="#DejaVuSans-32"/>
       <use xlink:href="#DejaVuSans-30" x="63.623047"/>
       <use xlink:href="#DejaVuSans-30" x="127.246094"/>
      </g>
     </g>
    </g>
    <g id="ytick_5">
     <g id="line2d_22">
      <g>
       <use xlink:href="#mdbb31100a3" x="57.71" y="245.46429" style="stroke: #000000; stroke-width: 0.8"/>
      </g>
     </g>
     <g id="text_22">
      <!-- 300 -->
      <g transform="translate(27.805 250.023353) scale(0.12 -0.12)">
       <use xlink:href="#DejaVuSans-33"/>
       <use xlink:href="#DejaVuSans-30" x="63.623047"/>
       <use xlink:href="#DejaVuSans-30" x="127.246094"/>
      </g>
     </g>
    </g>
    <g id="ytick_6">
     <g id="line2d_23">
      <g>
       <use xlink:href="#mdbb31100a3" x="57.71" y="209.528495" style="stroke: #000000; stroke-width: 0.8"/>
      </g>
     </g>
     <g id="text_23">
      <!-- 400 -->
      <g transform="translate(27.805 214.087558) scale(0.12 -0.12)">
       <use xlink:href="#DejaVuSans-34"/>
       <use xlink:href="#DejaVuSans-30" x="63.623047"/>
       <use xlink:href="#DejaVuSans-30" x="127.246094"/>
      </g>
     </g>
    </g>
    <g id="text_24">
     <!-- Soil moisture (mm) -->
     <g transform="translate(21.309375 312.644687) rotate(-90) scale(0.12 -0.12)">
      <use xlink:href="#DejaVuSans-53"/>
      <use xlink:href="#DejaVuSans-6f" x="63.476562"/>
      <use xlink:href="#DejaVuSans-69" x="124.658203"/>
      <use xlink:href="#DejaVuSans-6c" x="152.441406"/>
      <use xlink:href="#DejaVuSans-20" x="180.224609"/>
      <use xlink:href="#DejaVuSans-6d" x="212.011719"/>
      <use xlink:href="#DejaVuSans-6f" x="309.423828"/>
      <use xlink:href="#DejaVuSans-69" x="370.605469"/>
      <use xlink:href="#DejaVuSans-73" x="398.388672"/>
      <use xlink:href="#DejaVuSans-74" x="450.488281"/>
      <use xlink:href="#DejaVuSans-75" x="489.697266"/>
      <use xlink:href="#DejaVuSans-72" x="553.076172"/>
      <use xlink:href="#DejaVuSans-65" x="591.939453"/>
      <use xlink:href="#DejaVuSans-20" x="653.462891"/>
      <use xlink:href="#DejaVuSans-28" x="685.25"/>
      <use xlink:href="#DejaVuSans-6d" x="724.263672"/>
      <use xlink:href="#DejaVuSans-6d" x="821.675781"/>
      <use xlink:href="#DejaVuSans-29" x="919.087891"/>
     </g>
    </g>
   </g>
   <g id="line2d_24">
    <path d="M 93.770455 201.328096 
L 95.751798 201.389459 
L 97.733142 201.739094 
L 99.714486 201.81748 
L 111.602547 201.356004 
L 117.546578 201.407596 
L 119.527922 201.317746 
L 129.43464 201.472531 
L 133.397328 201.423276 
L 149.248077 201.769613 
L 151.229421 201.709099 
L 153.210764 201.777671 
L 157.173452 201.72168 
L 161.136139 201.756037 
L 171.042857 201.654287 
L 175.005544 201.686127 
L 208.688387 201.962944 
L 214.632418 202.069292 
L 218.595105 202.424755 
L 226.52048 202.950157 
L 228.501823 202.964432 
L 230.483167 203.284432 
L 232.46451 203.099965 
L 236.427198 203.232887 
L 250.296603 203.980899 
L 252.277947 203.931245 
L 256.240634 204.264687 
L 262.184665 205.120674 
L 264.166009 204.583209 
L 266.147353 204.760988 
L 268.128696 205.065464 
L 270.11004 204.790565 
L 272.091384 204.884216 
L 274.072727 205.105334 
L 276.054071 205.46687 
L 278.035415 205.518239 
L 280.016758 205.71463 
L 283.979446 206.699624 
L 289.923477 208.695548 
L 291.90482 208.912681 
L 293.886164 209.305927 
L 295.867507 208.641758 
L 297.848851 208.341991 
L 301.811538 208.930007 
L 303.792882 209.600411 
L 313.6996 213.794369 
L 315.680944 214.267573 
L 317.662288 214.013852 
L 319.643631 214.040984 
L 321.624975 213.687665 
L 323.606319 214.168574 
L 329.55035 216.214601 
L 331.531693 216.381855 
L 341.438412 220.883718 
L 347.382443 223.972373 
L 349.363786 223.877601 
L 351.34513 224.307913 
L 353.326474 224.615076 
L 357.289161 226.684957 
L 359.270504 226.939141 
L 361.251848 227.477212 
L 363.233192 228.634411 
L 365.214535 228.891834 
L 367.195879 228.85448 
L 381.065285 237.204582 
L 383.046628 238.125595 
L 385.027972 238.289971 
L 387.009316 239.801567 
L 388.990659 240.076067 
L 390.972003 241.389699 
L 392.953347 240.609661 
L 394.93469 240.736853 
L 396.916034 241.422518 
L 398.897378 242.371097 
L 402.860065 244.917281 
L 404.841409 246.30466 
L 408.804096 248.646462 
L 410.78544 248.430449 
L 412.766783 249.538074 
L 414.748127 250.185058 
L 416.729471 250.3127 
L 418.710814 250.726249 
L 424.654845 252.388735 
L 428.617532 252.724785 
L 430.598876 253.225496 
L 432.58022 252.354769 
L 434.561563 252.271533 
L 436.542907 252.315821 
L 438.524251 251.513721 
L 440.505594 252.127476 
L 444.468282 254.324084 
L 446.449625 255.440986 
L 450.412313 257.845647 
L 456.356344 261.362558 
L 460.319031 263.889019 
L 462.300375 264.427811 
L 464.281718 265.567152 
L 466.263062 266.421375 
L 468.244406 266.889142 
L 470.225749 265.833029 
L 472.207093 263.797838 
L 474.188437 264.108617 
L 476.16978 265.107338 
L 480.132468 266.781805 
L 486.076499 269.993773 
L 492.020529 272.998843 
L 494.001873 273.607385 
L 495.983217 274.570852 
L 499.945904 276.984677 
L 503.908591 279.146204 
L 505.889935 278.52258 
L 509.852622 280.556208 
L 511.833966 281.36819 
L 513.81531 282.373851 
L 515.796653 282.156209 
L 517.777997 283.230442 
L 519.759341 284.110293 
L 521.740684 284.86783 
L 525.703372 286.739624 
L 527.684715 287.149565 
L 529.666059 286.808318 
L 531.647403 287.465058 
L 533.628746 287.602946 
L 535.61009 288.397136 
L 537.591434 287.418848 
L 539.572777 287.190018 
L 541.554121 287.519297 
L 543.535465 288.434956 
L 545.516808 288.787541 
L 549.479496 290.312861 
L 551.460839 290.42392 
L 555.423526 291.756573 
L 557.40487 292.457334 
L 559.386214 292.417994 
L 561.367557 291.338433 
L 563.348901 291.653971 
L 565.330245 291.339696 
L 567.311588 291.66814 
L 569.292932 292.24731 
L 571.274276 290.033824 
L 573.255619 290.368337 
L 575.236963 290.506756 
L 577.218307 290.921081 
L 579.19965 291.168967 
L 581.180994 291.553691 
L 583.162338 291.815258 
L 585.143681 291.300654 
L 587.125025 290.637909 
L 589.106369 290.94303 
L 591.087712 291.446278 
L 593.069056 291.688633 
L 595.0504 291.790665 
L 597.031743 291.364852 
L 599.013087 290.547318 
L 604.957118 291.289574 
L 612.882493 292.750831 
L 614.863836 291.433631 
L 616.84518 290.472669 
L 618.826523 285.494172 
L 620.807867 285.475123 
L 624.770554 285.897253 
L 626.751898 286.218874 
L 632.695929 286.725852 
L 634.677273 286.108871 
L 636.658616 284.885622 
L 638.63996 284.67951 
L 640.621304 284.709403 
L 646.565335 285.208456 
L 666.378771 286.562381 
L 668.360115 286.398484 
L 674.304146 286.557181 
L 676.28549 286.087913 
L 678.266833 285.193317 
L 682.22952 284.687115 
L 684.210864 284.327037 
L 688.173551 284.293195 
L 690.154895 284.124413 
L 692.136239 283.429321 
L 694.117582 283.438707 
L 698.08027 283.158343 
L 709.968332 282.998229 
L 711.949675 282.10386 
L 713.931019 281.728187 
L 715.912363 279.232561 
L 717.893706 278.166707 
L 719.87505 277.573858 
L 725.819081 277.288401 
L 729.781768 277.084408 
L 731.763112 276.689929 
L 733.744456 276.482108 
L 739.688487 276.277394 
L 741.66983 275.447251 
L 743.651174 275.158085 
L 749.595205 274.948541 
L 751.576548 272.967881 
L 753.557892 272.522086 
L 755.539236 272.313416 
L 757.520579 270.483952 
L 759.501923 269.39334 
L 761.483267 268.796891 
L 763.46461 268.5176 
L 765.445954 267.91531 
L 767.427298 265.532536 
L 769.408641 263.596156 
L 773.371329 261.239859 
L 777.334016 260.537438 
L 779.31536 260.244336 
L 785.259391 260.055093 
L 787.240734 258.465427 
L 789.222078 258.374713 
L 791.203422 258.129028 
L 793.184765 257.577182 
L 795.166109 252.893513 
L 797.147453 250.695779 
L 799.128796 248.831165 
L 801.11014 248.406609 
L 809.035514 247.904537 
L 811.016858 246.357749 
L 812.998202 246.092816 
L 814.979545 246.021027 
L 814.979545 246.021027 
" clip-path="url(#pdacc934aa1)" style="fill: none; stroke: #1f77b4; stroke-width: 1.5; stroke-linecap: square"/>
   </g>
   <g id="line2d_25">
    <path d="M 93.770455 201.269091 
L 95.751798 201.351028 
L 97.733142 201.986621 
L 99.714486 202.045351 
L 111.602547 201.539769 
L 117.546578 201.546102 
L 121.509266 201.421242 
L 123.490609 201.460881 
L 125.471953 201.388248 
L 127.453297 201.640542 
L 135.378671 201.535136 
L 155.192108 201.722815 
L 186.893606 201.573536 
L 200.763012 201.781069 
L 210.66973 201.844335 
L 214.632418 201.925317 
L 224.539136 202.644889 
L 226.52048 202.818706 
L 228.501823 202.857507 
L 230.483167 203.181699 
L 232.46451 202.904755 
L 244.352572 203.443074 
L 256.240634 204.255814 
L 262.184665 205.155725 
L 264.166009 204.207346 
L 268.128696 204.774412 
L 270.11004 204.438509 
L 274.072727 204.85605 
L 276.054071 205.304889 
L 278.035415 205.248042 
L 280.016758 205.528438 
L 283.979446 206.513709 
L 291.90482 208.972194 
L 293.886164 209.488524 
L 295.867507 208.293444 
L 297.848851 208.008073 
L 299.830195 208.365369 
L 301.811538 208.917854 
L 303.792882 209.589401 
L 315.680944 214.500596 
L 317.662288 214.59148 
L 319.643631 214.8248 
L 321.624975 214.435078 
L 323.606319 214.945131 
L 325.587662 215.686885 
L 327.569006 216.558467 
L 329.55035 217.275348 
L 331.531693 217.546901 
L 341.438412 222.040992 
L 347.382443 225.13026 
L 349.363786 225.209638 
L 351.34513 225.68841 
L 353.326474 226.005776 
L 357.289161 228.152312 
L 361.251848 229.693332 
L 363.233192 230.874391 
L 367.195879 231.642939 
L 383.046628 241.276261 
L 385.027972 241.835224 
L 387.009316 243.374745 
L 388.990659 244.243867 
L 390.972003 245.651449 
L 392.953347 244.486504 
L 394.93469 245.010928 
L 396.916034 245.836445 
L 398.897378 246.837215 
L 402.860065 249.370134 
L 404.841409 250.748485 
L 406.822752 251.860762 
L 408.804096 253.124627 
L 410.78544 253.611648 
L 412.766783 254.709947 
L 414.748127 255.376818 
L 416.729471 255.737856 
L 418.710814 256.574282 
L 424.654845 258.751191 
L 428.617532 259.390965 
L 430.598876 260.100402 
L 432.58022 259.437931 
L 434.561563 260.154282 
L 436.542907 260.488392 
L 438.524251 260.382358 
L 440.505594 261.022994 
L 442.486938 262.179729 
L 446.449625 264.303667 
L 450.412313 266.662858 
L 456.356344 270.111535 
L 460.319031 272.587707 
L 462.300375 273.223464 
L 464.281718 274.341901 
L 466.263062 275.180041 
L 468.244406 275.750543 
L 470.225749 274.871616 
L 472.207093 271.889864 
L 474.188437 272.694545 
L 476.16978 273.775935 
L 480.132468 275.423992 
L 486.076499 278.587493 
L 492.020529 281.527404 
L 495.983217 283.401407 
L 499.945904 285.819989 
L 503.908591 287.962348 
L 505.889935 287.445606 
L 509.852622 289.428014 
L 511.833966 290.240697 
L 513.81531 291.272483 
L 515.796653 291.559872 
L 519.759341 293.527316 
L 521.740684 294.265365 
L 527.684715 296.950188 
L 529.666059 297.079236 
L 531.647403 297.715824 
L 533.628746 298.228374 
L 535.61009 298.995019 
L 537.591434 298.318376 
L 539.572777 298.892097 
L 541.554121 299.337243 
L 543.535465 300.217329 
L 545.516808 300.801335 
L 549.479496 302.27578 
L 551.460839 302.596736 
L 555.423526 303.873543 
L 557.40487 304.605144 
L 559.386214 304.896906 
L 561.367557 304.11641 
L 563.348901 304.522532 
L 565.330245 304.694867 
L 567.311588 305.043457 
L 569.292932 305.696491 
L 571.274276 302.662661 
L 577.218307 303.703703 
L 579.19965 304.270191 
L 583.162338 304.958001 
L 585.143681 305.177656 
L 587.125025 305.196819 
L 589.106369 305.491493 
L 591.087712 305.969133 
L 593.069056 306.227292 
L 595.0504 306.649155 
L 597.031743 306.820867 
L 599.013087 306.78004 
L 602.975774 307.325874 
L 612.882493 309.050909 
L 614.863836 308.144901 
L 616.84518 307.725724 
L 618.826523 299.519836 
L 624.770554 300.140923 
L 628.733242 300.647866 
L 634.677273 301.064281 
L 636.658616 300.436893 
L 660.43474 302.087983 
L 670.341459 302.501366 
L 674.304146 302.601422 
L 690.154895 302.60705 
L 694.117582 302.721547 
L 713.931019 302.48503 
L 715.912363 299.234915 
L 717.893706 298.879575 
L 725.819081 298.551991 
L 727.800425 298.422193 
L 747.613861 298.208942 
L 751.576548 298.136558 
L 755.539236 298.036838 
L 757.520579 296.114183 
L 759.501923 295.688818 
L 763.46461 295.454396 
L 765.445954 295.468862 
L 767.427298 292.406015 
L 769.408641 290.33094 
L 771.389985 289.619625 
L 773.371329 289.190697 
L 779.31536 289.051544 
L 793.184765 288.776256 
L 795.166109 280.931043 
L 797.147453 278.143299 
L 799.128796 276.001858 
L 809.035514 275.918591 
L 811.016858 274.367547 
L 814.979545 274.319723 
L 814.979545 274.319723 
" clip-path="url(#pdacc934aa1)" style="fill: none; stroke: #ff7f0e; stroke-width: 1.5; stroke-linecap: square"/>
   </g>
   <g id="line2d_26">
    <path d="M 93.770455 201.52141 
L 95.751798 201.533971 
L 99.714486 201.752161 
L 109.621204 201.406922 
L 113.583891 201.434047 
L 117.546578 201.465459 
L 119.527922 201.375617 
L 129.43464 201.414939 
L 135.378671 201.428507 
L 137.360015 201.635492 
L 161.136139 201.776634 
L 171.042857 201.674886 
L 176.986888 201.743588 
L 182.930919 201.733494 
L 194.818981 201.99506 
L 214.632418 202.211892 
L 230.483167 203.314937 
L 232.46451 203.215685 
L 240.389885 203.45292 
L 250.296603 204.020111 
L 252.277947 203.841828 
L 256.240634 204.125922 
L 262.184665 204.890972 
L 264.166009 204.651151 
L 268.128696 205.103503 
L 270.11004 204.947014 
L 272.091384 205.0229 
L 274.072727 205.213073 
L 276.054071 205.598667 
L 280.016758 206.010325 
L 283.979446 206.857265 
L 289.923477 208.592268 
L 291.90482 208.824275 
L 293.886164 209.170871 
L 297.848851 208.760906 
L 299.830195 208.951397 
L 301.811538 209.319616 
L 303.792882 209.87419 
L 313.6996 213.366032 
L 315.680944 213.787317 
L 317.662288 213.615613 
L 319.643631 213.783674 
L 321.624975 213.677228 
L 323.606319 214.002065 
L 329.55035 215.652988 
L 331.531693 215.682151 
L 341.438412 219.163217 
L 347.382443 221.568799 
L 351.34513 221.99725 
L 353.326474 222.063862 
L 357.289161 223.684097 
L 361.251848 224.364385 
L 363.233192 225.278562 
L 365.214535 225.336736 
L 367.195879 225.257733 
L 381.065285 231.680224 
L 383.046628 232.520778 
L 385.027972 232.985742 
L 387.009316 234.223132 
L 388.990659 234.698197 
L 390.972003 235.765368 
L 392.953347 235.673596 
L 394.93469 235.696554 
L 396.916034 236.14785 
L 398.897378 236.817674 
L 402.860065 238.747443 
L 404.841409 239.824116 
L 406.822752 240.628285 
L 408.804096 241.560569 
L 410.78544 241.505154 
L 412.766783 242.293332 
L 414.748127 242.626817 
L 416.729471 242.545441 
L 424.654845 243.82101 
L 428.617532 243.650443 
L 430.598876 243.937869 
L 432.58022 243.486087 
L 434.561563 243.524196 
L 436.542907 243.388443 
L 438.524251 242.753519 
L 440.505594 243.060724 
L 442.486938 243.908333 
L 446.449625 245.429951 
L 450.412313 247.195266 
L 456.356344 249.748468 
L 460.319031 251.635785 
L 462.300375 251.89563 
L 464.281718 252.714149 
L 466.263062 253.239333 
L 468.244406 253.428496 
L 470.225749 252.813679 
L 472.207093 251.789028 
L 474.188437 252.029636 
L 476.16978 252.757653 
L 480.132468 253.773851 
L 486.076499 256.023935 
L 492.020529 258.054126 
L 494.001873 258.513112 
L 495.983217 259.151534 
L 499.945904 260.969595 
L 503.908591 262.513323 
L 505.889935 262.379924 
L 509.852622 263.772427 
L 511.833966 264.268637 
L 513.81531 264.985039 
L 515.796653 265.058128 
L 517.777997 265.816701 
L 519.759341 266.411932 
L 521.740684 266.842589 
L 525.703372 268.077833 
L 527.684715 268.413196 
L 529.666059 268.378799 
L 531.647403 268.705076 
L 533.628746 268.703652 
L 535.61009 269.174654 
L 537.591434 268.571806 
L 539.572777 268.424696 
L 541.554121 268.480756 
L 543.535465 269.079868 
L 545.516808 269.229245 
L 549.479496 270.115795 
L 551.460839 269.993868 
L 555.423526 270.675277 
L 557.40487 271.08949 
L 559.386214 270.877368 
L 561.367557 270.171936 
L 563.348901 270.203684 
L 565.330245 269.784985 
L 567.311588 269.790103 
L 569.292932 270.101241 
L 571.274276 268.825068 
L 579.19965 268.881562 
L 583.162338 268.88276 
L 585.143681 268.530563 
L 587.125025 268.052133 
L 589.106369 268.015626 
L 591.087712 268.18752 
L 595.0504 268.03966 
L 597.031743 267.568492 
L 599.013087 266.87876 
L 604.957118 266.696813 
L 612.882493 266.810651 
L 614.863836 265.801715 
L 616.84518 265.092637 
L 618.826523 262.262191 
L 622.789211 261.825599 
L 628.733242 261.586734 
L 632.695929 261.193772 
L 634.677273 260.600943 
L 636.658616 259.595685 
L 640.621304 258.914992 
L 646.565335 258.404129 
L 666.378771 256.276487 
L 668.360115 255.821713 
L 674.304146 254.934907 
L 676.28549 254.349083 
L 678.266833 253.540818 
L 682.22952 252.644314 
L 684.210864 252.110635 
L 690.154895 250.932115 
L 692.136239 250.306772 
L 694.117582 249.975204 
L 700.061613 248.682253 
L 706.005644 247.609653 
L 709.968332 246.863756 
L 711.949675 246.083789 
L 713.931019 245.544283 
L 715.912363 244.02747 
L 717.893706 243.168482 
L 719.87505 242.516517 
L 725.819081 241.200128 
L 731.763112 239.821931 
L 737.707143 238.621786 
L 739.688487 238.251776 
L 741.66983 237.553183 
L 745.632517 236.743952 
L 749.595205 236.57906 
L 751.576548 234.653685 
L 755.539236 233.675762 
L 757.520579 232.575329 
L 759.501923 231.791483 
L 761.483267 231.148115 
L 765.445954 230.12318 
L 767.427298 228.853734 
L 769.408641 227.727273 
L 773.371329 226.144941 
L 777.334016 225.254188 
L 781.296703 224.506842 
L 785.259391 224.410856 
L 787.240734 223.170849 
L 791.203422 222.457215 
L 793.184765 221.980575 
L 795.166109 220.102173 
L 797.147453 219.125047 
L 799.128796 218.29371 
L 803.091484 217.626413 
L 809.035514 216.885395 
L 811.016858 216.239542 
L 814.979545 215.711235 
L 814.979545 215.711235 
" clip-path="url(#pdacc934aa1)" style="fill: none; stroke: #2ca02c; stroke-width: 1.5; stroke-linecap: square"/>
   </g>
   <g id="patch_8">
    <path d="M 57.71 314.44 
L 57.71 195.88 
" style="fill: none; stroke: #000000; stroke-width: 0.8; stroke-linejoin: miter; stroke-linecap: square"/>
   </g>
   <g id="patch_9">
    <path d="M 851.04 314.44 
L 851.04 195.88 
" style="fill: none; stroke: #000000; stroke-width: 0.8; stroke-linejoin: miter; stroke-linecap: square"/>
   </g>
   <g id="patch_10">
    <path d="M 57.71 314.44 
L 851.04 314.44 
" style="fill: none; stroke: #000000; stroke-width: 0.8; stroke-linejoin: miter; stroke-linecap: square"/>
   </g>
   <g id="patch_11">
    <path d="M 57.71 195.88 
L 851.04 195.88 
" style="fill: none; stroke: #000000; stroke-width: 0.8; stroke-linejoin: miter; stroke-linecap: square"/>
   </g>
   <g id="text_25">
    <!-- Drought year 2018 -->
    <g transform="translate(386.14375 189.88) scale(0.144 -0.144)">
     <defs>
      <path id="DejaVuSans-44" d="M 1259 4147 
L 1259 519 
L 2022 519 
Q 2988 519 3436 956 
Q 3884 1394 3884 2338 
Q 3884 3275 3436 3711 
Q 2988 4147 2022 4147 
L 1259 4147 
z
M 628 4666 
L 1925 4666 
Q 3281 4666 3915 4102 
Q 4550 3538 4550 2338 
Q 4550 1131 3912 565 
Q 3275 0 1925 0 
L 628 0 
L 628 4666 
z
" transform="scale(0.015625)"/>
     </defs>
     <use xlink:href="#DejaVuSans-44"/>
     <use xlink:href="#DejaVuSans-72" x="77.001953"/>
     <use xlink:href="#DejaVuSans-6f" x="115.865234"/>
     <use xlink:href="#DejaVuSans-75" x="177.046875"/>
     <use xlink:href="#DejaVuSans-67" x="240.425781"/>
     <use xlink:href="#DejaVuSans-68" x="303.902344"/>
     <use xlink:href="#DejaVuSans-74" x="367.28125"/>
     <use xlink:href="#DejaVuSans-20" x="406.490234"/>
     <use xlink:href="#DejaVuSans-79" x="438.277344"/>
     <use xlink:href="#DejaVuSans-65" x="497.457031"/>
     <use xlink:href="#DejaVuSans-61" x="558.980469"/>
     <use xlink:href="#DejaVuSans-72" x="620.259766"/>
     <use xlink:href="#DejaVuSans-20" x="661.373047"/>
     <use xlink:href="#DejaVuSans-32" x="693.160156"/>
     <use xlink:href="#DejaVuSans-30" x="756.783203"/>
     <use xlink:href="#DejaVuSans-31" x="820.40625"/>
     <use xlink:href="#DejaVuSans-38" x="884.029297"/>
    </g>
   </g>
   <g id="legend_1">
    <g id="patch_12">
     <path d="M 66.11 308.44 
L 211.24625 308.44 
Q 213.64625 308.44 213.64625 306.04 
L 213.64625 254.39875 
Q 213.64625 251.99875 211.24625 251.99875 
L 66.11 251.99875 
Q 63.71 251.99875 63.71 254.39875 
L 63.71 306.04 
Q 63.71 308.44 66.11 308.44 
z
" style="fill: #ffffff; opacity: 0.8; stroke: #cccccc; stroke-linejoin: miter"/>
    </g>
    <g id="line2d_27">
     <path d="M 68.51 261.716875 
L 80.51 261.716875 
L 92.51 261.716875 
" style="fill: none; stroke: #1f77b4; stroke-width: 1.5; stroke-linecap: square"/>
    </g>
    <g id="text_26">
     <!-- Normal variability -->
     <g transform="translate(102.11 265.916875) scale(0.12 -0.12)">
      <defs>
       <path id="DejaVuSans-76" d="M 191 3500 
L 800 3500 
L 1894 563 
L 2988 3500 
L 3597 3500 
L 2284 0 
L 1503 0 
L 191 3500 
z
" transform="scale(0.015625)"/>
       <path id="DejaVuSans-62" d="M 3116 1747 
Q 3116 2381 2855 2742 
Q 2594 3103 2138 3103 
Q 1681 3103 1420 2742 
Q 1159 2381 1159 1747 
Q 1159 1113 1420 752 
Q 1681 391 2138 391 
Q 2594 391 2855 752 
Q 3116 1113 3116 1747 
z
M 1159 2969 
Q 1341 3281 1617 3432 
Q 1894 3584 2278 3584 
Q 2916 3584 3314 3078 
Q 3713 2572 3713 1747 
Q 3713 922 3314 415 
Q 2916 -91 2278 -91 
Q 1894 -91 1617 61 
Q 1341 213 1159 525 
L 1159 0 
L 581 0 
L 581 4863 
L 1159 4863 
L 1159 2969 
z
" transform="scale(0.015625)"/>
      </defs>
      <use xlink:href="#DejaVuSans-4e"/>
      <use xlink:href="#DejaVuSans-6f" x="74.804688"/>
      <use xlink:href="#DejaVuSans-72" x="135.986328"/>
      <use xlink:href="#DejaVuSans-6d" x="175.349609"/>
      <use xlink:href="#DejaVuSans-61" x="272.761719"/>
      <use xlink:href="#DejaVuSans-6c" x="334.041016"/>
      <use xlink:href="#DejaVuSans-20" x="361.824219"/>
      <use xlink:href="#DejaVuSans-76" x="393.611328"/>
      <use xlink:href="#DejaVuSans-61" x="452.791016"/>
      <use xlink:href="#DejaVuSans-72" x="514.070312"/>
      <use xlink:href="#DejaVuSans-69" x="555.183594"/>
      <use xlink:href="#DejaVuSans-61" x="582.966797"/>
      <use xlink:href="#DejaVuSans-62" x="644.246094"/>
      <use xlink:href="#DejaVuSans-69" x="707.722656"/>
      <use xlink:href="#DejaVuSans-6c" x="735.505859"/>
      <use xlink:href="#DejaVuSans-69" x="763.289062"/>
      <use xlink:href="#DejaVuSans-74" x="791.072266"/>
      <use xlink:href="#DejaVuSans-79" x="830.28125"/>
     </g>
    </g>
    <g id="line2d_28">
     <path d="M 68.51 279.330625 
L 80.51 279.330625 
L 92.51 279.330625 
" style="fill: none; stroke: #ff7f0e; stroke-width: 1.5; stroke-linecap: square"/>
    </g>
    <g id="text_27">
     <!-- Double variability -->
     <g transform="translate(102.11 283.530625) scale(0.12 -0.12)">
      <use xlink:href="#DejaVuSans-44"/>
      <use xlink:href="#DejaVuSans-6f" x="77.001953"/>
      <use xlink:href="#DejaVuSans-75" x="138.183594"/>
      <use xlink:href="#DejaVuSans-62" x="201.5625"/>
      <use xlink:href="#DejaVuSans-6c" x="265.039062"/>
      <use xlink:href="#DejaVuSans-65" x="292.822266"/>
      <use xlink:href="#DejaVuSans-20" x="354.345703"/>
      <use xlink:href="#DejaVuSans-76" x="386.132812"/>
      <use xlink:href="#DejaVuSans-61" x="445.3125"/>
      <use xlink:href="#DejaVuSans-72" x="506.591797"/>
      <use xlink:href="#DejaVuSans-69" x="547.705078"/>
      <use xlink:href="#DejaVuSans-61" x="575.488281"/>
      <use xlink:href="#DejaVuSans-62" x="636.767578"/>
      <use xlink:href="#DejaVuSans-69" x="700.244141"/>
      <use xlink:href="#DejaVuSans-6c" x="728.027344"/>
      <use xlink:href="#DejaVuSans-69" x="755.810547"/>
      <use xlink:href="#DejaVuSans-74" x="783.59375"/>
      <use xlink:href="#DejaVuSans-79" x="822.802734"/>
     </g>
    </g>
    <g id="line2d_29">
     <path d="M 68.51 296.944375 
L 80.51 296.944375 
L 92.51 296.944375 
" style="fill: none; stroke: #2ca02c; stroke-width: 1.5; stroke-linecap: square"/>
    </g>
    <g id="text_28">
     <!-- Half variability -->
     <g transform="translate(102.11 301.144375) scale(0.12 -0.12)">
      <defs>
       <path id="DejaVuSans-48" d="M 628 4666 
L 1259 4666 
L 1259 2753 
L 3553 2753 
L 3553 4666 
L 4184 4666 
L 4184 0 
L 3553 0 
L 3553 2222 
L 1259 2222 
L 1259 0 
L 628 0 
L 628 4666 
z
" transform="scale(0.015625)"/>
       <path id="DejaVuSans-66" d="M 2375 4863 
L 2375 4384 
L 1825 4384 
Q 1516 4384 1395 4259 
Q 1275 4134 1275 3809 
L 1275 3500 
L 2222 3500 
L 2222 3053 
L 1275 3053 
L 1275 0 
L 697 0 
L 697 3053 
L 147 3053 
L 147 3500 
L 697 3500 
L 697 3744 
Q 697 4328 969 4595 
Q 1241 4863 1831 4863 
L 2375 4863 
z
" transform="scale(0.015625)"/>
      </defs>
      <use xlink:href="#DejaVuSans-48"/>
      <use xlink:href="#DejaVuSans-61" x="75.195312"/>
      <use xlink:href="#DejaVuSans-6c" x="136.474609"/>
      <use xlink:href="#DejaVuSans-66" x="164.257812"/>
      <use xlink:href="#DejaVuSans-20" x="199.462891"/>
      <use xlink:href="#DejaVuSans-76" x="231.25"/>
      <use xlink:href="#DejaVuSans-61" x="290.429688"/>
      <use xlink:href="#DejaVuSans-72" x="351.708984"/>
      <use xlink:href="#DejaVuSans-69" x="392.822266"/>
      <use xlink:href="#DejaVuSans-61" x="420.605469"/>
      <use xlink:href="#DejaVuSans-62" x="481.884766"/>
      <use xlink:href="#DejaVuSans-69" x="545.361328"/>
      <use xlink:href="#DejaVuSans-6c" x="573.144531"/>
      <use xlink:href="#DejaVuSans-69" x="600.927734"/>
      <use xlink:href="#DejaVuSans-74" x="628.710938"/>
      <use xlink:href="#DejaVuSans-79" x="667.919922"/>
     </g>
    </g>
   </g>
  </g>
 </g>
 <defs>
  <clipPath id="p0e89ec02e3">
   <rect x="57.71" y="29.76" width="793.33" height="118.56"/>
  </clipPath>
  <clipPath id="pdacc934aa1">
   <rect x="57.71" y="195.88" width="793.33" height="118.56"/>
  </clipPath>
 </defs>
</svg>
